<svg width="160" height="160" viewBox="0 0 160 160" fill="none" xmlns="http://www.w3.org/2000/svg">
<circle cx="80" cy="80" r="80" fill="#FF9F10"/>
<path fill-rule="evenodd" clip-rule="evenodd" d="M64.7879 117.456L36.1419 83.9044C34.3841 81.8455 34.3841 78.5074 36.1419 76.4485L64.7879 42.8971C66.5457 40.8382 69.3958 40.8382 71.1537 42.8971C72.9115 44.956 72.9115 48.2941 71.1537 50.353L50.1919 74.9044L123.859 74.9044C126.345 74.9044 128 77.2648 128 80.1765C128 83.0882 126.345 85.4486 123.859 85.4486L50.1919 85.4486L71.1537 110C72.9115 112.059 72.9115 115.397 71.1537 117.456C69.3958 119.515 66.5458 119.515 64.7879 117.456Z" fill="white"/>
</svg>
