<svg width="435" height="169" viewBox="0 0 435 169" fill="none" xmlns="http://www.w3.org/2000/svg">
<path fill-rule="evenodd" clip-rule="evenodd" d="M64.8867 5.50464V75.229H48.6314L20.6668 41.1746V75.229H0.483398V5.50464H16.8328L44.7033 39.542V5.50464H64.8867ZM47.4556 47.2475L15.5292 8.25692H3.23568V72.4768H17.9145V33.4861L49.9327 72.4768H62.1344V8.25692H47.4556V47.2475ZM129.805 57.7979V69.3195L151.28 39.8025L128.613 8.10543V22.9357H94.8514V31.3761H124.668V48.4402H94.8514V57.7979H129.805ZM92.0992 45.6879H121.916V34.1283H92.0992V20.1835H125.86V8.25692H77.3286V72.4768H127.053V60.5502H92.0992V45.6879ZM74.5763 5.50464V75.229H149.429L163.226 55.0329L177.272 75.229H201.243L175.315 39.2669L190.966 17.5859V23.1192H211.517V75.229H231.883V23.1192H252.434V5.50464H176.814L163.735 24.2952L150.408 5.50464H74.5763ZM163.756 29.0825L148.985 8.25692H132.105L154.673 39.8164L130.912 72.4768H147.976L163.205 50.1833L178.71 72.4768H195.866L171.921 39.2659L193.718 9.07106V20.3669H214.269V72.4768H229.131V20.3669H249.681V8.25692H178.251L163.756 29.0825Z" fill="white"/>
<path fill-rule="evenodd" clip-rule="evenodd" d="M364.548 32.6113L335.854 7.49389L342.557 0L385.527 37.6145L342.557 75.2289L335.854 67.7351L364.548 42.6176L289.198 42.6176V32.6113L364.548 32.6113Z" fill="white"/>
<path d="M30.6795 103.394C36.3106 103.394 41.1849 104.332 45.3023 106.209C49.4803 108.086 52.6894 110.751 54.9298 114.202C57.1701 117.653 58.2903 121.741 58.2903 126.463C58.2903 131.126 57.1701 135.213 54.9298 138.725C52.6894 142.176 49.4803 144.84 45.3023 146.717C41.1849 148.534 36.3106 149.442 30.6795 149.442H17.8731V166.971H3.15942V103.394H30.6795ZM29.862 137.453C34.2822 137.453 37.6427 136.515 39.9436 134.638C42.2445 132.7 43.395 129.975 43.395 126.463C43.395 122.891 42.2445 120.166 39.9436 118.289C37.6427 116.352 34.2822 115.383 29.862 115.383H17.8731V137.453H29.862Z" fill="white"/>
<path d="M109.303 166.971L97.0415 149.261H96.3149H83.5085V166.971H68.7948V103.394H96.3149C101.946 103.394 106.82 104.332 110.938 106.209C115.116 108.086 118.325 110.751 120.565 114.202C122.806 117.653 123.926 121.741 123.926 126.463C123.926 131.186 122.775 135.273 120.474 138.725C118.234 142.116 115.025 144.719 110.847 146.536L125.106 166.971H109.303ZM109.03 126.463C109.03 122.891 107.88 120.166 105.579 118.289C103.278 116.352 99.9176 115.383 95.4974 115.383H83.5085V137.544H95.4974C99.9176 137.544 103.278 136.575 105.579 134.638C107.88 132.7 109.03 129.975 109.03 126.463Z" fill="white"/>
<path d="M166.373 168.061C159.773 168.061 153.809 166.638 148.48 163.793C143.213 160.947 139.065 157.041 136.037 152.076C133.07 147.051 131.587 141.419 131.587 135.183C131.587 128.946 133.07 123.345 136.037 118.38C139.065 113.354 143.213 109.419 148.48 106.573C153.809 103.727 159.773 102.304 166.373 102.304C172.973 102.304 178.907 103.727 184.175 106.573C189.443 109.419 193.59 113.354 196.618 118.38C199.645 123.345 201.159 128.946 201.159 135.183C201.159 141.419 199.645 147.051 196.618 152.076C193.59 157.041 189.443 160.947 184.175 163.793C178.907 166.638 172.973 168.061 166.373 168.061ZM166.373 155.528C170.127 155.528 173.518 154.68 176.545 152.984C179.573 151.228 181.934 148.806 183.63 145.718C185.386 142.63 186.264 139.118 186.264 135.183C186.264 131.247 185.386 127.735 183.63 124.647C181.934 121.559 179.573 119.167 176.545 117.472C173.518 115.716 170.127 114.838 166.373 114.838C162.619 114.838 159.228 115.716 156.201 117.472C153.173 119.167 150.781 121.559 149.025 124.647C147.33 127.735 146.482 131.247 146.482 135.183C146.482 139.118 147.33 142.63 149.025 145.718C150.781 148.806 153.173 151.228 156.201 152.984C159.228 154.68 162.619 155.528 166.373 155.528Z" fill="white"/>
<path d="M222.603 168.061C218.304 168.061 214.338 167.274 210.705 165.7C207.132 164.065 204.196 161.764 201.895 158.797L210.069 148.988C213.521 153.65 217.456 155.982 221.876 155.982C227.871 155.982 230.868 152.47 230.868 145.446V115.201H208.525V103.394H245.491V144.628C245.491 152.439 243.553 158.313 239.678 162.249C235.803 166.124 230.111 168.061 222.603 168.061Z" fill="white"/>
<path d="M309.252 155.164V166.971H260.024V103.394H308.071V115.201H274.647V129.007H304.165V140.451H274.647V155.164H309.252Z" fill="white"/>
<path d="M351.208 168.061C344.729 168.061 338.856 166.669 333.588 163.883C328.381 161.038 324.263 157.132 321.236 152.167C318.269 147.141 316.785 141.48 316.785 135.183C316.785 128.885 318.269 123.254 321.236 118.289C324.263 113.264 328.381 109.358 333.588 106.573C338.856 103.727 344.759 102.304 351.299 102.304C356.809 102.304 361.774 103.273 366.194 105.21C370.675 107.148 374.429 109.933 377.456 113.566L368.011 122.285C363.712 117.32 358.383 114.838 352.025 114.838C348.09 114.838 344.578 115.716 341.49 117.472C338.402 119.167 335.98 121.559 334.224 124.647C332.528 127.735 331.681 131.247 331.681 135.183C331.681 139.118 332.528 142.63 334.224 145.718C335.98 148.806 338.402 151.228 341.49 152.984C344.578 154.68 348.09 155.528 352.025 155.528C358.383 155.528 363.712 153.015 368.011 147.989L377.456 156.708C374.429 160.402 370.675 163.217 366.194 165.155C361.713 167.093 356.718 168.061 351.208 168.061Z" fill="white"/>
<path d="M399.941 115.383H379.597V103.394H435V115.383H414.655V166.971H399.941V115.383Z" fill="white"/>
</svg>
