<svg width="379" height="168" viewBox="0 0 379 168" fill="none" xmlns="http://www.w3.org/2000/svg">
<path d="M62.625 22.5H63.625V21.5H62.625V22.5ZM62.625 82V83H63.625V82H62.625ZM51.32 82L50.5472 82.6346L50.8472 83H51.32V82ZM21.655 45.875L22.4278 45.2404L20.655 43.0815V45.875H21.655ZM21.655 82V83H22.655V82H21.655ZM8.055 82H7.055V83H8.055V82ZM8.055 22.5V21.5H7.055V22.5H8.055ZM19.445 22.5L20.2187 21.8665L19.9186 21.5H19.445V22.5ZM49.025 58.625L48.2513 59.2585L50.025 61.4247V58.625H49.025ZM49.025 22.5V21.5H48.025V22.5H49.025ZM61.625 22.5V82H63.625V22.5H61.625ZM62.625 81H51.32V83H62.625V81ZM52.0928 81.3654L22.4278 45.2404L20.8822 46.5096L50.5472 82.6346L52.0928 81.3654ZM20.655 45.875V82H22.655V45.875H20.655ZM21.655 81H8.055V83H21.655V81ZM9.055 82V22.5H7.055V82H9.055ZM8.055 23.5H19.445V21.5H8.055V23.5ZM18.6713 23.1335L48.2513 59.2585L49.7987 57.9915L20.2187 21.8665L18.6713 23.1335ZM50.025 58.625V22.5H48.025V58.625H50.025ZM49.025 23.5H62.625V21.5H49.025V23.5ZM122.772 70.95H123.772V69.95H122.772V70.95ZM122.772 82V83H123.772V82H122.772ZM76.7025 82H75.7025V83H76.7025V82ZM76.7025 22.5V21.5H75.7025V22.5H76.7025ZM121.667 22.5H122.667V21.5H121.667V22.5ZM121.667 33.55V34.55H122.667V33.55H121.667ZM90.3875 33.55V32.55H89.3875V33.55H90.3875ZM90.3875 46.47H89.3875V47.47H90.3875V46.47ZM118.012 46.47H119.012V45.47H118.012V46.47ZM118.012 57.18V58.18H119.012V57.18H118.012ZM90.3875 57.18V56.18H89.3875V57.18H90.3875ZM90.3875 70.95H89.3875V71.95H90.3875V70.95ZM121.772 70.95V82H123.772V70.95H121.772ZM122.772 81H76.7025V83H122.772V81ZM77.7025 82V22.5H75.7025V82H77.7025ZM76.7025 23.5H121.667V21.5H76.7025V23.5ZM120.667 22.5V33.55H122.667V22.5H120.667ZM121.667 32.55H90.3875V34.55H121.667V32.55ZM89.3875 33.55V46.47H91.3875V33.55H89.3875ZM90.3875 47.47H118.012V45.47H90.3875V47.47ZM117.012 46.47V57.18H119.012V46.47H117.012ZM118.012 56.18H90.3875V58.18H118.012V56.18ZM89.3875 57.18V70.95H91.3875V57.18H89.3875ZM90.3875 71.95H122.772V69.95H90.3875V71.95ZM170.633 82L169.812 82.571L170.11 83H170.633V82ZM156.268 61.345L157.089 60.774L156.26 59.583L155.442 60.7809L156.268 61.345ZM142.158 82V83H142.686L142.983 82.5641L142.158 82ZM126.348 82L125.539 81.4117L124.384 83H126.348V82ZM148.363 51.74L149.171 52.3283L149.596 51.745L149.176 51.1583L148.363 51.74ZM127.453 22.5V21.5H125.508L126.639 23.0817L127.453 22.5ZM143.093 22.5L143.908 21.9215L143.61 21.5H143.093V22.5ZM156.778 41.795L155.962 42.3735L156.785 43.5344L157.599 42.3663L156.778 41.795ZM170.208 22.5V21.5H169.685L169.387 21.9287L170.208 22.5ZM185.083 22.5L185.894 23.0853L187.038 21.5H185.083V22.5ZM164.343 51.23L163.532 50.6447L163.11 51.2296L163.532 51.8148L164.343 51.23ZM186.528 82V83H188.482L187.339 81.4152L186.528 82ZM171.454 81.429L157.089 60.774L155.447 61.916L169.812 82.571L171.454 81.429ZM155.442 60.7809L141.332 81.4359L142.983 82.5641L157.093 61.9091L155.442 60.7809ZM142.158 81H126.348V83H142.158V81ZM127.156 82.5883L149.171 52.3283L147.554 51.1517L125.539 81.4117L127.156 82.5883ZM149.176 51.1583L128.266 21.9183L126.639 23.0817L147.549 52.3217L149.176 51.1583ZM127.453 23.5H143.093V21.5H127.453V23.5ZM142.277 23.0785L155.962 42.3735L157.593 41.2165L143.908 21.9215L142.277 23.0785ZM157.599 42.3663L171.029 23.0713L169.387 21.9287L155.957 41.2237L157.599 42.3663ZM170.208 23.5H185.083V21.5H170.208V23.5ZM184.272 21.9147L163.532 50.6447L165.154 51.8153L185.894 23.0853L184.272 21.9147ZM163.532 51.8148L185.717 82.5848L187.339 81.4152L165.154 50.6452L163.532 51.8148ZM186.528 81H170.633V83H186.528V81ZM203.578 33.72H204.578V32.72H203.578V33.72ZM184.538 33.72H183.538V34.72H184.538V33.72ZM184.538 22.5V21.5H183.538V22.5H184.538ZM236.388 22.5H237.388V21.5H236.388V22.5ZM236.388 33.72V34.72H237.388V33.72H236.388ZM217.348 33.72V32.72H216.348V33.72H217.348ZM217.348 82V83H218.348V82H217.348ZM203.578 82H202.578V83H203.578V82ZM203.578 32.72H184.538V34.72H203.578V32.72ZM185.538 33.72V22.5H183.538V33.72H185.538ZM184.538 23.5H236.388V21.5H184.538V23.5ZM235.388 22.5V33.72H237.388V22.5H235.388ZM236.388 32.72H217.348V34.72H236.388V32.72ZM216.348 33.72V82H218.348V33.72H216.348ZM217.348 81H203.578V83H217.348V81ZM204.578 82V33.72H202.578V82H204.578Z" fill="#FFA91C"/>
<path d="M31.106 104.4C35.942 104.4 40.128 105.206 43.6641 106.818C47.2521 108.43 50.0081 110.718 51.9321 113.682C53.8561 116.646 54.8181 120.156 54.8181 124.212C54.8181 128.216 53.8561 131.726 51.9321 134.742C50.0081 137.706 47.2521 139.994 43.6641 141.606C40.128 143.166 35.942 143.946 31.106 143.946H20.108V159H7.47205V104.4H31.106ZM30.404 133.65C34.2 133.65 37.086 132.844 39.062 131.232C41.038 129.568 42.026 127.228 42.026 124.212C42.026 121.144 41.038 118.804 39.062 117.192C37.086 115.528 34.2 114.696 30.404 114.696H20.108V133.65H30.404ZM98.6272 159L88.0972 143.79H87.4732H76.4752V159H63.8392V104.4H87.4732C92.3092 104.4 96.4952 105.206 100.031 106.818C103.619 108.43 106.375 110.718 108.299 113.682C110.223 116.646 111.185 120.156 111.185 124.212C111.185 128.268 110.197 131.778 108.221 134.742C106.297 137.654 103.541 139.89 99.9532 141.45L112.199 159H98.6272ZM98.3932 124.212C98.3932 121.144 97.4052 118.804 95.4292 117.192C93.4532 115.528 90.5672 114.696 86.7712 114.696H76.4752V133.728H86.7712C90.5672 133.728 93.4532 132.896 95.4292 131.232C97.4052 129.568 98.3932 127.228 98.3932 124.212ZM147.639 159.936C141.971 159.936 136.849 158.714 132.273 156.27C127.749 153.826 124.187 150.472 121.587 146.208C119.039 141.892 117.765 137.056 117.765 131.7C117.765 126.344 119.039 121.534 121.587 117.27C124.187 112.954 127.749 109.574 132.273 107.13C136.849 104.686 141.971 103.464 147.639 103.464C153.307 103.464 158.403 104.686 162.927 107.13C167.451 109.574 171.013 112.954 173.613 117.27C176.213 121.534 177.513 126.344 177.513 131.7C177.513 137.056 176.213 141.892 173.613 146.208C171.013 150.472 167.451 153.826 162.927 156.27C158.403 158.714 153.307 159.936 147.639 159.936ZM147.639 149.172C150.863 149.172 153.775 148.444 156.375 146.988C158.975 145.48 161.003 143.4 162.459 140.748C163.967 138.096 164.721 135.08 164.721 131.7C164.721 128.32 163.967 125.304 162.459 122.652C161.003 120 158.975 117.946 156.375 116.49C153.775 114.982 150.863 114.228 147.639 114.228C144.415 114.228 141.503 114.982 138.903 116.49C136.303 117.946 134.249 120 132.741 122.652C131.285 125.304 130.557 128.32 130.557 131.7C130.557 135.08 131.285 138.096 132.741 140.748C134.249 143.4 136.303 145.48 138.903 146.988C141.503 148.444 144.415 149.172 147.639 149.172ZM195.929 159.936C192.237 159.936 188.831 159.26 185.711 157.908C182.643 156.504 180.121 154.528 178.145 151.98L185.165 143.556C188.129 147.56 191.509 149.562 195.305 149.562C200.453 149.562 203.027 146.546 203.027 140.514V114.54H183.839V104.4H215.585V139.812C215.585 146.52 213.921 151.564 210.593 154.944C207.265 158.272 202.377 159.936 195.929 159.936ZM270.342 148.86V159H228.066V104.4H269.328V114.54H240.624V126.396H265.974V136.224H240.624V148.86H270.342ZM306.374 159.936C300.81 159.936 295.766 158.74 291.242 156.348C286.77 153.904 283.234 150.55 280.634 146.286C278.086 141.97 276.812 137.108 276.812 131.7C276.812 126.292 278.086 121.456 280.634 117.192C283.234 112.876 286.77 109.522 291.242 107.13C295.766 104.686 300.836 103.464 306.452 103.464C311.184 103.464 315.448 104.296 319.244 105.96C323.092 107.624 326.316 110.016 328.916 113.136L320.804 120.624C317.112 116.36 312.536 114.228 307.076 114.228C303.696 114.228 300.68 114.982 298.028 116.49C295.376 117.946 293.296 120 291.788 122.652C290.332 125.304 289.604 128.32 289.604 131.7C289.604 135.08 290.332 138.096 291.788 140.748C293.296 143.4 295.376 145.48 298.028 146.988C300.68 148.444 303.696 149.172 307.076 149.172C312.536 149.172 317.112 147.014 320.804 142.698L328.916 150.186C326.316 153.358 323.092 155.776 319.244 157.44C315.396 159.104 311.106 159.936 306.374 159.936ZM348.225 114.696H330.753V104.4H378.333V114.696H360.861V159H348.225V114.696Z" fill="white"/>
<path fill-rule="evenodd" clip-rule="evenodd" d="M323.614 50L302.84 33.723L310.241 24.2771L350.728 56L310.241 87.723L302.84 78.2771L323.614 62H262V50H323.614Z" fill="#FFA91C"/>
</svg>
