<svg width="437" height="169" viewBox="0 0 437 169" fill="none" xmlns="http://www.w3.org/2000/svg">
<path fill-rule="evenodd" clip-rule="evenodd" d="M179.326 45.5093L179.32 45.5185C176.739 49.5018 173.065 52.5235 168.421 54.6132L168.413 54.617L168.404 54.6207C163.822 56.6457 158.506 57.6102 152.532 57.6102H142.355V75.3347H122V5.53881H152.532C158.514 5.53881 163.839 6.53658 168.428 8.63087C173.068 10.7204 176.74 13.7411 179.32 17.7224C181.912 21.722 183.156 26.3932 183.156 31.6204C183.156 36.7952 181.908 41.455 179.332 45.5001L179.326 45.5093ZM167.294 11.1408C163.137 9.24289 158.217 8.29391 152.532 8.29391H124.751V72.5796H139.604V54.8551H152.532C158.217 54.8551 163.137 53.9368 167.294 52.1C171.512 50.2021 174.751 47.5082 177.013 44.0184C179.275 40.4674 180.405 36.3347 180.405 31.6204C180.405 26.8449 179.275 22.7123 177.013 19.2225C174.751 15.7327 171.512 13.0388 167.294 11.1408ZM160.129 25.4764L160.113 25.4625C158.473 24.0795 155.817 23.1715 151.707 23.1715H142.355V39.9776H151.707C155.82 39.9776 158.486 39.0986 160.129 37.7644C161.714 36.4195 162.618 34.5 162.618 31.6204C162.618 28.65 161.697 26.7575 160.146 25.49L160.129 25.4764ZM161.884 39.8857C159.562 41.7837 156.169 42.7327 151.707 42.7327H139.604V20.4164H151.707C156.169 20.4164 159.562 21.396 161.884 23.3551C164.207 25.2531 165.369 28.0082 165.369 31.6204C165.369 35.1715 164.207 37.9266 161.884 39.8857ZM230.461 75.3347L218.084 57.4266H208.614V75.3347H188.259V5.53881H218.791C224.773 5.53881 230.098 6.5367 234.688 8.63122C239.328 10.7207 242.999 13.7413 245.579 17.7224C248.171 21.722 249.415 26.3932 249.415 31.6204C249.415 36.8604 248.134 41.5406 245.472 45.5428C243.462 48.5875 240.795 51.049 237.531 52.9438L253.13 75.3347H230.461ZM233.461 51.9164C234.333 51.5368 235.163 51.1232 235.951 50.6756C238.976 48.9574 241.386 46.7384 243.18 44.0184C245.503 40.5286 246.664 36.396 246.664 31.6204C246.664 26.8449 245.534 22.7123 243.272 19.2225C241.01 15.7327 237.771 13.0388 233.553 11.1408C229.396 9.24289 224.476 8.29391 218.791 8.29391H191.01V72.5796H205.863V54.6715H219.525L231.903 72.5796H247.856L233.461 51.9164ZM226.388 25.4764L226.372 25.4625C224.732 24.0795 222.076 23.1715 217.966 23.1715H208.614V40.0694H217.966C222.076 40.0694 224.732 39.1614 226.372 37.7783C227.967 36.4328 228.877 34.51 228.877 31.6204C228.877 28.65 227.956 26.7575 226.405 25.49L226.388 25.4764ZM205.863 42.8245V20.4164H217.966C222.428 20.4164 225.821 21.396 228.143 23.3551C230.466 25.2531 231.628 28.0082 231.628 31.6204C231.628 35.1715 230.466 37.9266 228.143 39.8857C225.821 41.8449 222.428 42.8245 217.966 42.8245H205.863ZM255.682 5.53881H276.037V75.3347H255.682V5.53881ZM300.236 71.7925L300.23 71.7893C294.497 68.6872 289.945 64.4022 286.628 58.9527L286.618 58.936L286.608 58.919C283.345 53.3839 281.733 47.2005 281.733 40.4368C281.733 33.6733 283.345 27.5147 286.615 22.0337L286.62 22.0253C289.936 16.5126 294.489 12.1909 300.23 9.0842L300.236 9.08108L300.242 9.07799C306.056 5.96781 312.528 4.43677 319.6 4.43677C326.672 4.43677 333.119 5.96771 338.879 9.0842C344.618 12.1899 349.17 16.5099 352.485 22.0201C355.821 27.5021 357.467 33.6658 357.467 40.4368C357.467 47.211 355.819 53.402 352.489 58.9401L352.481 58.9527C349.163 64.4022 344.612 68.6872 338.879 71.7893C333.119 74.9058 326.672 76.4368 319.6 76.4368C312.528 76.4368 306.056 74.9057 300.242 71.7956L300.236 71.7925ZM350.132 23.447C347.076 18.3653 342.889 14.3857 337.571 11.5082C332.253 8.63064 326.263 7.19187 319.6 7.19187C312.938 7.19187 306.917 8.63064 301.538 11.5082C296.22 14.3857 292.033 18.3653 288.976 23.447C285.981 28.4674 284.484 34.1306 284.484 40.4368C284.484 46.7429 285.981 52.4368 288.976 57.5184C292.033 62.5388 296.22 66.4878 301.538 69.3653C306.917 72.2429 312.938 73.6817 319.6 73.6817C326.263 73.6817 332.253 72.2429 337.571 69.3653C342.889 66.4878 347.076 62.5388 350.132 57.5184C353.189 52.4368 354.717 46.7429 354.717 40.4368C354.717 34.1306 353.189 28.4674 350.132 23.447ZM334.62 49.7459L334.63 49.728C336.142 47.0642 336.929 43.9916 336.929 40.4368C336.929 36.8819 336.142 33.8094 334.63 31.1456L334.62 31.1277L334.61 31.1096C333.142 28.4322 331.125 26.3906 328.525 24.9324L328.507 24.9223L328.489 24.9119C325.883 23.3976 322.942 22.6204 319.6 22.6204C316.259 22.6204 313.318 23.3976 310.711 24.9119L310.693 24.9223L310.675 24.9324C308.073 26.3921 306.019 28.4395 304.489 31.1276C303.032 33.7937 302.271 36.8734 302.271 40.4368C302.271 44.0001 303.032 47.0798 304.489 49.7459C306.02 52.4362 308.079 54.5206 310.693 56.0432C313.301 57.5018 316.249 58.2531 319.6 58.2531C322.951 58.2531 325.899 57.5017 328.507 56.043C331.118 54.522 333.141 52.4433 334.61 49.7639L334.62 49.7459ZM329.869 58.4368C326.813 60.1511 323.39 61.0082 319.6 61.0082C315.81 61.0082 312.387 60.1511 309.331 58.4368C306.275 56.6613 303.86 54.2123 302.088 51.0898C300.376 47.9674 299.521 44.4164 299.521 40.4368C299.521 36.4572 300.376 32.9062 302.088 29.7837C303.86 26.6613 306.275 24.2429 309.331 22.5286C312.387 20.7531 315.81 19.8653 319.6 19.8653C323.39 19.8653 326.813 20.7531 329.869 22.5286C332.926 24.2429 335.31 26.6613 337.021 29.7837C338.794 32.9062 339.68 36.4572 339.68 40.4368C339.68 44.4164 338.794 47.9674 337.021 51.0898C335.31 54.2123 332.926 56.6613 329.869 58.4368ZM405.332 75.3347L392.954 57.4266H383.484V75.3347H363.129V5.53881H393.661C399.643 5.53881 404.968 6.53654 409.557 8.63075C414.198 10.7203 417.869 13.741 420.449 17.7224C423.041 21.722 424.285 26.3932 424.285 31.6204C424.285 36.8593 423.005 41.5385 420.344 45.5401C418.334 48.5861 415.666 51.0485 412.401 52.9438L428 75.3347H405.332ZM408.332 51.9164C409.203 51.5368 410.033 51.1232 410.821 50.6756C413.847 48.9574 416.256 46.7384 418.05 44.0184C420.373 40.5286 421.535 36.396 421.535 31.6204C421.535 26.8449 420.404 22.7123 418.142 19.2225C415.881 15.7327 412.641 13.0388 408.423 11.1408C404.267 9.24289 399.346 8.29391 393.661 8.29391H365.88V72.5796H380.733V54.6715H394.395L406.773 72.5796H422.727L408.332 51.9164ZM401.258 25.4764L401.242 25.4625C399.602 24.0795 396.946 23.1715 392.836 23.1715H383.484V40.0694H392.836C396.946 40.0694 399.602 39.1614 401.242 37.7783C402.837 36.4328 403.747 34.51 403.747 31.6204C403.747 28.65 402.826 26.7575 401.275 25.49L401.258 25.4764ZM380.733 42.8245V20.4164H392.836C397.298 20.4164 400.691 21.396 403.014 23.3551C405.336 25.2531 406.498 28.0082 406.498 31.6204C406.498 35.1715 405.336 37.9266 403.014 39.8857C400.691 41.8449 397.298 42.8245 392.836 42.8245H380.733ZM258.433 8.29391V72.5796H273.286V8.29391H258.433Z" fill="white"/>
<path d="M32.5302 103.531C38.1634 103.531 43.0395 104.473 47.1585 106.357C51.338 108.241 54.5483 110.915 56.7895 114.379C59.0307 117.843 60.1513 121.945 60.1513 126.685C60.1513 131.365 59.0307 135.467 56.7895 138.992C54.5483 142.456 51.338 145.13 47.1585 147.014C43.0395 148.837 38.1634 149.749 32.5302 149.749H19.7191V167.343H5V103.531H32.5302ZM31.7125 137.716C36.1343 137.716 39.496 136.774 41.7978 134.89C44.0996 132.945 45.2504 130.21 45.2504 126.685C45.2504 123.1 44.0996 120.365 41.7978 118.481C39.496 116.536 36.1343 115.564 31.7125 115.564H19.7191V137.716H31.7125Z" fill="white"/>
<path d="M111.183 167.343L98.9167 149.567H98.1898H85.3788V167.343H70.6596V103.531H98.1898C103.823 103.531 108.699 104.473 112.818 106.357C116.998 108.241 120.208 110.915 122.449 114.379C124.69 117.843 125.811 121.945 125.811 126.685C125.811 131.426 124.66 135.528 122.358 138.992C120.117 142.395 116.907 145.009 112.727 146.832L126.992 167.343H111.183ZM110.91 126.685C110.91 123.1 109.759 120.365 107.457 118.481C105.156 116.536 101.794 115.564 97.3721 115.564H85.3788V137.807H97.3721C101.794 137.807 105.156 136.835 107.457 134.89C109.759 132.945 110.91 130.21 110.91 126.685Z" fill="white"/>
<path d="M168.274 168.437C161.671 168.437 155.705 167.009 150.375 164.152C145.105 161.296 140.956 157.376 137.927 152.393C134.959 147.348 133.475 141.696 133.475 135.437C133.475 129.177 134.959 123.556 137.927 118.572C140.956 113.528 145.105 109.578 150.375 106.721C155.705 103.865 161.671 102.437 168.274 102.437C174.876 102.437 180.812 103.865 186.082 106.721C191.352 109.578 195.501 113.528 198.53 118.572C201.558 123.556 203.073 129.177 203.073 135.437C203.073 141.696 201.558 147.348 198.53 152.393C195.501 157.376 191.352 161.296 186.082 164.152C180.812 167.009 174.876 168.437 168.274 168.437ZM168.274 155.857C172.029 155.857 175.421 155.006 178.45 153.304C181.479 151.542 183.841 149.111 185.537 146.011C187.294 142.912 188.172 139.387 188.172 135.437C188.172 131.486 187.294 127.962 185.537 124.862C183.841 121.763 181.479 119.362 178.45 117.661C175.421 115.898 172.029 115.017 168.274 115.017C164.518 115.017 161.126 115.898 158.098 117.661C155.069 119.362 152.676 121.763 150.92 124.862C149.224 127.962 148.376 131.486 148.376 135.437C148.376 139.387 149.224 142.912 150.92 146.011C152.676 149.111 155.069 151.542 158.098 153.304C161.126 155.006 164.518 155.857 168.274 155.857Z" fill="white"/>
<path d="M224.525 168.437C220.224 168.437 216.257 167.647 212.622 166.067C209.048 164.426 206.111 162.116 203.809 159.138L211.986 149.293C215.439 153.973 219.376 156.312 223.798 156.312C229.794 156.312 232.793 152.788 232.793 145.738V115.382H210.442V103.531H247.421V144.917C247.421 152.757 245.483 158.652 241.606 162.603C237.729 166.492 232.036 168.437 224.525 168.437Z" fill="white"/>
<path d="M311.205 155.492V167.343H261.96V103.531H310.024V115.382H276.588V129.238H306.117V140.724H276.588V155.492H311.205Z" fill="white"/>
<path d="M353.177 168.437C346.696 168.437 340.82 167.039 335.551 164.243C330.341 161.387 326.222 157.467 323.194 152.484C320.226 147.44 318.742 141.757 318.742 135.437C318.742 129.116 320.226 123.464 323.194 118.481C326.222 113.437 330.341 109.517 335.551 106.721C340.82 103.865 346.726 102.437 353.268 102.437C358.78 102.437 363.747 103.409 368.169 105.354C372.651 107.299 376.407 110.094 379.435 113.741L369.986 122.492C365.685 117.509 360.355 115.017 353.995 115.017C350.058 115.017 346.544 115.898 343.455 117.661C340.366 119.362 337.943 121.763 336.187 124.862C334.49 127.962 333.642 131.486 333.642 135.437C333.642 139.387 334.49 142.912 336.187 146.011C337.943 149.111 340.366 151.542 343.455 153.304C346.544 155.006 350.058 155.857 353.995 155.857C360.355 155.857 365.685 153.335 369.986 148.29L379.435 157.042C376.407 160.749 372.651 163.575 368.169 165.52C363.686 167.464 358.689 168.437 353.177 168.437Z" fill="white"/>
<path d="M401.928 115.564H381.576V103.531H437V115.564H416.648V167.343H401.928V115.564Z" fill="white"/>
<path fill-rule="evenodd" clip-rule="evenodd" d="M20.9074 42.9247L49.5033 67.9657L42.8236 75.4368L-4.23353e-06 37.9368L42.8236 0.436768L49.5033 7.90785L20.9074 32.9488L96 32.9488L96 42.9247L20.9074 42.9247Z" fill="white"/>
</svg>
