<svg width="379" height="168" viewBox="0 0 379 168" fill="none" xmlns="http://www.w3.org/2000/svg">
<path d="M138.493 25.1345L138.078 26.0444L138.083 26.0467L138.493 25.1345ZM147.503 55.5645L148.342 56.109L148.346 56.1023L147.503 55.5645ZM138.493 63.0445L138.897 63.9595L138.903 63.9567L138.493 63.0445ZM112.823 65.5945V64.5945H111.823V65.5945H112.823ZM112.823 81.9995V82.9995H113.823V81.9995H112.823ZM99.053 81.9995H98.053V82.9995H99.053V81.9995ZM99.053 22.4995V21.4995H98.053V22.4995H99.053ZM133.478 51.7395L134.11 52.5144L134.116 52.5094L134.122 52.5044L133.478 51.7395ZM133.478 36.4395L132.834 37.2044L132.84 37.2094L132.846 37.2144L133.478 36.4395ZM112.823 33.7195V32.7195H111.823V33.7195H112.823ZM112.823 54.3745H111.823V55.3745H112.823V54.3745ZM124.808 23.4995C129.969 23.4995 134.383 24.3598 138.078 26.0444L138.908 24.2246C134.897 22.3959 130.187 21.4995 124.808 21.4995V23.4995ZM138.083 26.0467C141.838 27.7338 144.684 30.1081 146.664 33.159L148.342 32.07C146.129 28.6609 142.968 26.0486 138.903 24.2223L138.083 26.0467ZM146.664 33.159C148.641 36.2039 149.648 39.8335 149.648 44.0895H151.648C151.648 39.5056 150.559 35.4851 148.342 32.07L146.664 33.159ZM149.648 44.0895C149.648 48.2857 148.642 51.9194 146.66 55.0267L148.346 56.1023C150.557 52.6363 151.648 48.62 151.648 44.0895H149.648ZM146.664 55.02C144.684 58.0709 141.838 60.4452 138.083 62.1323L138.903 63.9567C142.968 62.1304 146.129 59.5181 148.342 56.109L146.664 55.02ZM138.089 62.1296C134.391 63.7613 129.973 64.5945 124.808 64.5945V66.5945C130.183 66.5945 134.888 65.7277 138.897 63.9594L138.089 62.1296ZM124.808 64.5945H112.823V66.5945H124.808V64.5945ZM111.823 65.5945V81.9995H113.823V65.5945H111.823ZM112.823 80.9995H99.053V82.9995H112.823V80.9995ZM100.053 81.9995V22.4995H98.053V81.9995H100.053ZM99.053 23.4995H124.808V21.4995H99.053V23.4995ZM124.043 55.3745C128.302 55.3745 131.709 54.4729 134.11 52.5144L132.846 50.9646C130.94 52.5194 128.058 53.3745 124.043 53.3745V55.3745ZM134.122 52.5044C136.54 50.4684 137.708 47.6163 137.708 44.0895H135.708C135.708 47.1361 134.723 49.384 132.834 50.9746L134.122 52.5044ZM137.708 44.0895C137.708 40.5132 136.544 37.6501 134.11 35.6646L132.846 37.2144C134.719 38.7422 135.708 40.9791 135.708 44.0895H137.708ZM134.122 35.6746C131.721 33.6522 128.308 32.7195 124.043 32.7195V34.7195C128.052 34.7195 130.929 35.6002 132.834 37.2044L134.122 35.6746ZM124.043 32.7195H112.823V34.7195H124.043V32.7195ZM111.823 33.7195V54.3745H113.823V33.7195H111.823ZM112.823 55.3745H124.043V53.3745H112.823V55.3745ZM198.389 81.9995L197.567 82.5687L197.865 82.9995H198.389V81.9995ZM186.914 65.4245L187.736 64.8553L187.438 64.4245H186.914V65.4245ZM174.249 65.4245V64.4245H173.249V65.4245H174.249ZM174.249 81.9995V82.9995H175.249V81.9995H174.249ZM160.479 81.9995H159.479V82.9995H160.479V81.9995ZM160.479 22.4995V21.4995H159.479V22.4995H160.479ZM199.919 25.1345L199.504 26.0444L199.509 26.0467L199.919 25.1345ZM208.844 55.5645L208.012 55.0098L208.009 55.0133L208.844 55.5645ZM199.834 62.8745L199.435 61.9574L198.315 62.4447L199.014 63.4467L199.834 62.8745ZM213.179 81.9995V82.9995H215.096L213.999 81.4273L213.179 81.9995ZM194.904 36.4395L194.26 37.2044L194.266 37.2094L194.272 37.2144L194.904 36.4395ZM174.249 33.7195V32.7195H173.249V33.7195H174.249ZM174.249 54.4595H173.249V55.4595H174.249V54.4595ZM194.904 51.7395L195.548 52.5044L195.548 52.5044L194.904 51.7395ZM199.211 81.4303L187.736 64.8553L186.092 65.9937L197.567 82.5687L199.211 81.4303ZM186.914 64.4245H186.234V66.4245H186.914V64.4245ZM186.234 64.4245H174.249V66.4245H186.234V64.4245ZM173.249 65.4245V81.9995H175.249V65.4245H173.249ZM174.249 80.9995H160.479V82.9995H174.249V80.9995ZM161.479 81.9995V22.4995H159.479V81.9995H161.479ZM160.479 23.4995H186.234V21.4995H160.479V23.4995ZM186.234 23.4995C191.395 23.4995 195.809 24.3598 199.504 26.0444L200.334 24.2246C196.322 22.3959 191.613 21.4995 186.234 21.4995V23.4995ZM199.509 26.0467C203.264 27.7338 206.11 30.1081 208.09 33.159L209.768 32.07C207.555 28.6609 204.393 26.0486 200.329 24.2223L199.509 26.0467ZM208.09 33.159C210.067 36.2039 211.074 39.8335 211.074 44.0895H213.074C213.074 39.5056 211.984 35.4851 209.768 32.07L208.09 33.159ZM211.074 44.0895C211.074 48.3403 210.041 51.9661 208.012 55.0098L209.676 56.1192C211.953 52.7029 213.074 48.6787 213.074 44.0895H211.074ZM208.009 55.0133C206.032 58.006 203.19 60.325 199.435 61.9574L200.233 63.7916C204.298 62.024 207.462 59.4697 209.678 56.1158L208.009 55.0133ZM199.014 63.4467L212.359 82.5718L213.999 81.4273L200.654 62.3023L199.014 63.4467ZM213.179 80.9995H198.389V82.9995H213.179V80.9995ZM199.134 44.0895C199.134 40.5132 197.97 37.6501 195.536 35.6646L194.272 37.2144C196.145 38.7422 197.134 40.9791 197.134 44.0895H199.134ZM195.548 35.6746C193.146 33.6522 189.734 32.7195 185.469 32.7195V34.7195C189.477 34.7195 192.355 35.6002 194.26 37.2044L195.548 35.6746ZM185.469 32.7195H174.249V34.7195H185.469V32.7195ZM173.249 33.7195V54.4595H175.249V33.7195H173.249ZM174.249 55.4595H185.469V53.4595H174.249V55.4595ZM185.469 55.4595C189.734 55.4595 193.146 54.5269 195.548 52.5044L194.26 50.9746C192.355 52.5788 189.477 53.4595 185.469 53.4595V55.4595ZM195.548 52.5044C197.966 50.4684 199.134 47.6163 199.134 44.0895H197.134C197.134 47.1361 196.149 49.384 194.26 50.9746L195.548 52.5044ZM222.984 22.4995V21.4995H221.984V22.4995H222.984ZM236.754 22.4995H237.754V21.4995H236.754V22.4995ZM236.754 81.9995V82.9995H237.754V81.9995H236.754ZM222.984 81.9995H221.984V82.9995H222.984V81.9995ZM222.984 23.4995H236.754V21.4995H222.984V23.4995ZM235.754 22.4995V81.9995H237.754V22.4995H235.754ZM236.754 80.9995H222.984V82.9995H236.754V80.9995ZM223.984 81.9995V22.4995H221.984V81.9995H223.984ZM262.944 79.0245L262.469 79.9043L262.473 79.9066L262.944 79.0245ZM251.299 68.0595L250.438 68.5679L250.442 68.574L250.446 68.5801L251.299 68.0595ZM251.299 36.5245L250.443 36.0085L250.441 36.0116L251.299 36.5245ZM262.944 25.4745L262.473 24.5924L262.469 24.5947L262.944 25.4745ZM307.994 36.5245L307.138 37.0405L307.141 37.0451L307.994 36.5245ZM307.994 68.0595L308.848 68.5801L308.851 68.5755L307.994 68.0595ZM296.349 79.0245L296.825 79.9043L296.825 79.9043L296.349 79.0245ZM289.209 68.9095L289.698 69.782L289.705 69.7783L289.711 69.7745L289.209 68.9095ZM295.839 62.1095L294.97 61.6152L294.966 61.6217L294.963 61.6283L295.839 62.1095ZM295.839 42.3895L294.963 42.8708L294.966 42.8773L294.97 42.8838L295.839 42.3895ZM289.209 35.6745L288.708 36.5395L288.714 36.5433L288.721 36.547L289.209 35.6745ZM270.169 35.6745L270.658 36.547L270.665 36.5433L270.671 36.5395L270.169 35.6745ZM263.454 42.3895L262.585 41.8952L262.581 41.9017L262.578 41.9083L263.454 42.3895ZM263.454 62.1095L262.578 62.5908L262.581 62.5973L262.585 62.6038L263.454 62.1095ZM270.169 68.9095L269.668 69.7745L269.674 69.7783L269.681 69.782L270.169 68.9095ZM279.689 82.0195C273.661 82.0195 268.244 80.7213 263.415 78.1424L262.473 79.9066C267.618 82.6544 273.364 84.0195 279.689 84.0195V82.0195ZM263.42 78.1447C258.641 75.5629 254.892 72.0298 252.153 67.5389L250.446 68.5801C253.374 73.3825 257.388 77.1595 262.469 79.9043L263.42 78.1447ZM252.16 67.5511C249.481 63.0124 248.134 57.9201 248.134 52.2495H246.134C246.134 58.2523 247.564 63.7 250.438 68.5679L252.16 67.5511ZM248.134 52.2495C248.134 46.5788 249.481 41.517 252.158 37.0375L250.441 36.0116C247.564 40.8254 246.134 46.2469 246.134 52.2495H248.134ZM252.156 37.0405C254.895 32.4936 258.644 28.9345 263.42 26.3543L262.469 24.5947C257.385 27.3412 253.37 31.1487 250.443 36.0085L252.156 37.0405ZM263.415 26.3566C268.244 23.7777 273.661 22.4795 279.689 22.4795V20.4795C273.364 20.4795 267.618 21.8447 262.473 24.5924L263.415 26.3566ZM279.689 22.4795C285.717 22.4795 291.105 23.7777 295.874 26.3543L296.825 24.5947C291.734 21.8446 286.015 20.4795 279.689 20.4795V22.4795ZM295.874 26.3543C300.65 28.9345 304.399 32.4936 307.138 37.0405L308.851 36.0085C305.923 31.1487 301.909 27.3412 296.825 24.5947L295.874 26.3543ZM307.141 37.0451C309.871 41.5236 311.244 46.5827 311.244 52.2495H313.244C313.244 46.243 311.784 40.8188 308.848 36.0039L307.141 37.0451ZM311.244 52.2495C311.244 57.9163 309.871 63.0058 307.138 67.5435L308.851 68.5755C311.784 63.7065 313.244 58.2561 313.244 52.2495H311.244ZM307.141 67.5389C304.402 72.0298 300.653 75.5629 295.874 78.1447L296.825 79.9043C301.906 77.1595 305.92 73.3825 308.848 68.5801L307.141 67.5389ZM295.874 78.1447C291.105 80.7213 285.717 82.0195 279.689 82.0195V84.0195C286.015 84.0195 291.734 82.6544 296.825 79.9043L295.874 78.1447ZM279.689 72.2895C283.359 72.2895 286.703 71.4591 289.698 69.782L288.721 68.037C286.049 69.5333 283.046 70.2895 279.689 70.2895V72.2895ZM289.711 69.7745C292.703 68.0392 295.042 65.6393 296.716 62.5908L294.963 61.6283C293.463 64.3597 291.382 66.4932 288.708 68.0445L289.711 69.7745ZM296.709 62.6038C298.447 59.5473 299.304 56.087 299.304 52.2495H297.304C297.304 55.7787 296.519 58.8917 294.97 61.6152L296.709 62.6038ZM299.304 52.2495C299.304 48.412 298.447 44.9517 296.709 41.8952L294.97 42.8838C296.519 45.6073 297.304 48.7203 297.304 52.2495H299.304ZM296.716 41.9083C295.041 38.8567 292.697 36.4816 289.698 34.802L288.721 36.547C291.388 38.0407 293.465 40.1423 294.963 42.8708L296.716 41.9083ZM289.711 34.8095C286.714 33.0713 283.366 32.2095 279.689 32.2095V34.2095C283.04 34.2095 286.038 34.991 288.708 36.5395L289.711 34.8095ZM279.689 32.2095C276.013 32.2095 272.664 33.0713 269.668 34.8095L270.671 36.5395C273.341 34.991 276.339 34.2095 279.689 34.2095V32.2095ZM269.681 34.802C266.684 36.4799 264.316 38.8508 262.585 41.8952L264.324 42.8838C265.879 40.1482 267.988 38.0425 270.658 36.547L269.681 34.802ZM262.578 41.9083C260.901 44.9624 260.074 48.418 260.074 52.2495H262.074C262.074 48.7143 262.834 45.5966 264.331 42.8708L262.578 41.9083ZM260.074 52.2495C260.074 56.081 260.901 59.5366 262.578 62.5908L264.331 61.6283C262.834 58.9024 262.074 55.7847 262.074 52.2495H260.074ZM262.585 62.6038C264.315 65.6453 266.679 68.041 269.668 69.7745L270.671 68.0445C267.993 66.4914 265.881 64.3537 264.324 61.6152L262.585 62.6038ZM269.681 69.782C272.675 71.4591 276.019 72.2895 279.689 72.2895V70.2895C276.333 70.2895 273.33 69.5333 270.658 68.037L269.681 69.782ZM360.503 81.9995L359.681 82.5687L359.979 82.9995H360.503V81.9995ZM349.028 65.4245L349.85 64.8553L349.552 64.4245H349.028V65.4245ZM336.363 65.4245V64.4245H335.363V65.4245H336.363ZM336.363 81.9995V82.9995H337.363V81.9995H336.363ZM322.593 81.9995H321.593V82.9995H322.593V81.9995ZM322.593 22.4995V21.4995H321.593V22.4995H322.593ZM362.033 25.1345L361.618 26.0444L361.623 26.0467L362.033 25.1345ZM370.958 55.5645L370.126 55.0098L370.124 55.0133L370.958 55.5645ZM361.948 62.8745L361.549 61.9574L360.429 62.4447L361.128 63.4467L361.948 62.8745ZM375.293 81.9995V82.9995H377.21L376.113 81.4273L375.293 81.9995ZM357.018 36.4395L356.374 37.2044L356.38 37.2094L356.386 37.2144L357.018 36.4395ZM336.363 33.7195V32.7195H335.363V33.7195H336.363ZM336.363 54.4595H335.363V55.4595H336.363V54.4595ZM357.018 51.7395L357.662 52.5044L357.662 52.5044L357.018 51.7395ZM361.325 81.4303L349.85 64.8553L348.206 65.9937L359.681 82.5687L361.325 81.4303ZM349.028 64.4245H348.348V66.4245H349.028V64.4245ZM348.348 64.4245H336.363V66.4245H348.348V64.4245ZM335.363 65.4245V81.9995H337.363V65.4245H335.363ZM336.363 80.9995H322.593V82.9995H336.363V80.9995ZM323.593 81.9995V22.4995H321.593V81.9995H323.593ZM322.593 23.4995H348.348V21.4995H322.593V23.4995ZM348.348 23.4995C353.509 23.4995 357.923 24.3598 361.618 26.0444L362.448 24.2246C358.437 22.3959 353.727 21.4995 348.348 21.4995V23.4995ZM361.623 26.0467C365.378 27.7338 368.224 30.1081 370.204 33.159L371.882 32.07C369.669 28.6609 366.508 26.0486 362.443 24.2223L361.623 26.0467ZM370.204 33.159C372.181 36.2039 373.188 39.8335 373.188 44.0895H375.188C375.188 39.5056 374.099 35.4851 371.882 32.07L370.204 33.159ZM373.188 44.0895C373.188 48.3403 372.155 51.9661 370.126 55.0098L371.79 56.1192C374.068 52.7029 375.188 48.6787 375.188 44.0895H373.188ZM370.124 55.0133C368.146 58.006 365.304 60.325 361.549 61.9574L362.347 63.7916C366.412 62.024 369.576 59.4697 371.792 56.1158L370.124 55.0133ZM361.128 63.4467L374.473 82.5718L376.113 81.4273L362.768 62.3023L361.128 63.4467ZM375.293 80.9995H360.503V82.9995H375.293V80.9995ZM361.248 44.0895C361.248 40.5132 360.084 37.6501 357.65 35.6646L356.386 37.2144C358.259 38.7422 359.248 40.9791 359.248 44.0895H361.248ZM357.662 35.6746C355.261 33.6522 351.848 32.7195 347.583 32.7195V34.7195C351.592 34.7195 354.469 35.6002 356.374 37.2044L357.662 35.6746ZM347.583 32.7195H336.363V34.7195H347.583V32.7195ZM335.363 33.7195V54.4595H337.363V33.7195H335.363ZM336.363 55.4595H347.583V53.4595H336.363V55.4595ZM347.583 55.4595C351.848 55.4595 355.261 54.5269 357.662 52.5044L356.374 50.9746C354.469 52.5788 351.592 53.4595 347.583 53.4595V55.4595ZM357.662 52.5044C360.08 50.4684 361.248 47.6163 361.248 44.0895H359.248C359.248 47.1361 358.263 49.384 356.374 50.9746L357.662 52.5044Z" fill="#FFA91C"/>
<path d="M31.106 104.4C35.942 104.4 40.128 105.206 43.6641 106.818C47.2521 108.43 50.0081 110.718 51.9321 113.682C53.8561 116.646 54.8181 120.156 54.8181 124.212C54.8181 128.216 53.8561 131.726 51.9321 134.742C50.0081 137.706 47.2521 139.994 43.6641 141.606C40.128 143.166 35.942 143.946 31.106 143.946H20.108V159H7.47205V104.4H31.106ZM30.404 133.65C34.2 133.65 37.086 132.844 39.062 131.232C41.038 129.568 42.026 127.228 42.026 124.212C42.026 121.144 41.038 118.804 39.062 117.192C37.086 115.528 34.2 114.696 30.404 114.696H20.108V133.65H30.404ZM98.6272 159L88.0972 143.79H87.4732H76.4752V159H63.8392V104.4H87.4732C92.3092 104.4 96.4952 105.206 100.031 106.818C103.619 108.43 106.375 110.718 108.299 113.682C110.223 116.646 111.185 120.156 111.185 124.212C111.185 128.268 110.197 131.778 108.221 134.742C106.297 137.654 103.541 139.89 99.9532 141.45L112.199 159H98.6272ZM98.3932 124.212C98.3932 121.144 97.4052 118.804 95.4292 117.192C93.4532 115.528 90.5672 114.696 86.7712 114.696H76.4752V133.728H86.7712C90.5672 133.728 93.4532 132.896 95.4292 131.232C97.4052 129.568 98.3932 127.228 98.3932 124.212ZM147.639 159.936C141.971 159.936 136.849 158.714 132.273 156.27C127.749 153.826 124.187 150.472 121.587 146.208C119.039 141.892 117.765 137.056 117.765 131.7C117.765 126.344 119.039 121.534 121.587 117.27C124.187 112.954 127.749 109.574 132.273 107.13C136.849 104.686 141.971 103.464 147.639 103.464C153.307 103.464 158.403 104.686 162.927 107.13C167.451 109.574 171.013 112.954 173.613 117.27C176.213 121.534 177.513 126.344 177.513 131.7C177.513 137.056 176.213 141.892 173.613 146.208C171.013 150.472 167.451 153.826 162.927 156.27C158.403 158.714 153.307 159.936 147.639 159.936ZM147.639 149.172C150.863 149.172 153.775 148.444 156.375 146.988C158.975 145.48 161.003 143.4 162.459 140.748C163.967 138.096 164.721 135.08 164.721 131.7C164.721 128.32 163.967 125.304 162.459 122.652C161.003 120 158.975 117.946 156.375 116.49C153.775 114.982 150.863 114.228 147.639 114.228C144.415 114.228 141.503 114.982 138.903 116.49C136.303 117.946 134.249 120 132.741 122.652C131.285 125.304 130.557 128.32 130.557 131.7C130.557 135.08 131.285 138.096 132.741 140.748C134.249 143.4 136.303 145.48 138.903 146.988C141.503 148.444 144.415 149.172 147.639 149.172ZM195.929 159.936C192.237 159.936 188.831 159.26 185.711 157.908C182.643 156.504 180.121 154.528 178.145 151.98L185.165 143.556C188.129 147.56 191.509 149.562 195.305 149.562C200.453 149.562 203.027 146.546 203.027 140.514V114.54H183.839V104.4H215.585V139.812C215.585 146.52 213.921 151.564 210.593 154.944C207.265 158.272 202.377 159.936 195.929 159.936ZM270.342 148.86V159H228.066V104.4H269.328V114.54H240.624V126.396H265.974V136.224H240.624V148.86H270.342ZM306.374 159.936C300.81 159.936 295.766 158.74 291.242 156.348C286.77 153.904 283.234 150.55 280.634 146.286C278.086 141.97 276.812 137.108 276.812 131.7C276.812 126.292 278.086 121.456 280.634 117.192C283.234 112.876 286.77 109.522 291.242 107.13C295.766 104.686 300.836 103.464 306.452 103.464C311.184 103.464 315.448 104.296 319.244 105.96C323.092 107.624 326.316 110.016 328.916 113.136L320.804 120.624C317.112 116.36 312.536 114.228 307.076 114.228C303.696 114.228 300.68 114.982 298.028 116.49C295.376 117.946 293.296 120 291.788 122.652C290.332 125.304 289.604 128.32 289.604 131.7C289.604 135.08 290.332 138.096 291.788 140.748C293.296 143.4 295.376 145.48 298.028 146.988C300.68 148.444 303.696 149.172 307.076 149.172C312.536 149.172 317.112 147.014 320.804 142.698L328.916 150.186C326.316 153.358 323.092 155.776 319.244 157.44C315.396 159.104 311.106 159.936 306.374 159.936ZM348.225 114.696H330.753V104.4H378.333V114.696H360.861V159H348.225V114.696Z" fill="white"/>
<path fill-rule="evenodd" clip-rule="evenodd" d="M30.4575 57.4999L49.4037 72.2676L42.0265 81.7322L3.24017 51.4999L42.0265 21.2677L49.4037 30.7322L30.4575 45.4999L88 45.4999L88 57.4999L30.4575 57.4999Z" fill="#FFA91C"/>
</svg>
