<?xml version="1.0" standalone="no"?>
<!DOCTYPE svg PUBLIC "-//W3C//DTD SVG 20010904//EN"
 "http://www.w3.org/TR/2001/REC-SVG-20010904/DTD/svg10.dtd">
<svg version="1.0" xmlns="http://www.w3.org/2000/svg"
 width="1603.000000pt" height="1603.000000pt" viewBox="0 0 1603.000000 1603.000000"
 preserveAspectRatio="xMidYMid meet">
<metadata>
Created by potrace 1.11, written by Peter Selinger 2001-2013
</metadata>
<g transform="translate(0.000000,1603.000000) scale(0.100000,-0.100000)"
fill="#000000" stroke="none">
<path d="M2330 15678 c-1 -122 -1 -13028 -1 -13064 l1 -31 850 -1 850 0 0
2342 0 2343 1418 0 c1402 0 1603 3 1897 27 114 10 216 21 275 31 14 2 45 7 70
10 25 4 56 8 70 10 77 12 100 16 145 25 28 5 66 12 85 15 19 4 76 15 125 26
517 114 972 285 1434 538 106 58 334 207 459 300 70 52 129 97 132 100 3 3 32
28 65 56 100 82 113 95 259 240 164 163 183 184 298 327 375 467 634 1000 777
1598 21 91 42 185 46 210 4 25 9 54 11 65 7 34 12 68 20 120 3 28 8 58 10 67
1 9 6 48 9 85 4 37 8 79 10 93 23 160 23 654 0 860 -2 19 -6 62 -10 95 -7 69
-14 119 -20 155 -3 14 -8 42 -11 64 -6 44 -10 61 -24 131 -6 28 -12 60 -14 72
-3 12 -20 82 -40 155 -136 520 -374 988 -708 1400 -84 103 -347 375 -443 459
-121 104 -403 319 -420 319 -3 0 -11 5 -18 10 -53 46 -283 179 -485 280 -342
170 -830 337 -1212 414 -14 3 -36 7 -50 11 -14 3 -63 12 -110 20 -121 21 -131
23 -174 30 -21 3 -48 7 -60 10 -12 2 -46 7 -76 10 -54 5 -96 10 -175 19 -22 3
-78 8 -125 12 -47 3 -101 9 -120 12 -19 3 -1157 7 -2527 9 l-2493 4 0 -83z
m4885 -1451 c22 -3 69 -9 105 -12 74 -8 122 -13 159 -20 14 -2 55 -9 91 -14
36 -6 108 -20 160 -31 52 -12 105 -23 117 -25 68 -15 284 -83 388 -122 867
-329 1441 -971 1631 -1824 13 -58 26 -123 29 -145 2 -21 6 -48 9 -59 2 -11 7
-54 11 -95 4 -41 9 -88 11 -105 5 -42 4 -381 -1 -435 -9 -105 -15 -159 -19
-186 -3 -16 -7 -46 -10 -67 -36 -238 -119 -493 -242 -743 -230 -467 -596 -846
-1084 -1124 -145 -83 -391 -190 -555 -243 -116 -37 -372 -103 -440 -112 -22
-3 -53 -9 -70 -12 -16 -4 -32 -7 -35 -8 -5 -1 -88 -12 -155 -20 -51 -7 -136
-14 -230 -21 -66 -5 -2920 -9 -3037 -5 -17 1 -18 137 -18 2721 l0 2721 1573
-4 c864 -2 1590 -6 1612 -10z"/>
<path d="M4324 13970 l-29 -5 0 -2450 0 -2450 965 -1 c531 0 970 2 977 4 8 2
11 385 11 1518 0 833 3 1518 7 1522 9 9 3053 9 3176 -1 53 -4 115 -10 138 -13
22 -3 41 -4 41 -1 0 2 -11 47 -24 98 -101 395 -297 742 -571 1009 -110 107
-121 117 -175 160 -291 230 -642 400 -1030 499 -82 21 -190 44 -265 56 -16 3
-41 7 -55 10 -89 16 -220 29 -400 41 -122 8 -2721 12 -2766 4z"/>
<path d="M11553 13440 c3 -8 24 -60 47 -115 108 -263 190 -547 265 -925 1 -8
6 -35 9 -60 3 -25 8 -54 10 -65 2 -11 7 -49 11 -85 4 -36 9 -73 11 -83 19 -98
26 -660 11 -842 -9 -111 -16 -182 -22 -215 -2 -14 -7 -50 -10 -80 -3 -30 -13
-91 -20 -135 -8 -44 -17 -96 -20 -115 -21 -130 -82 -361 -169 -635 -2 -5 -6
-17 -9 -25 -4 -8 -18 -49 -33 -90 -15 -41 -53 -136 -86 -210 -294 -667 -752
-1246 -1337 -1690 -18 -14 -45 -35 -59 -46 -73 -58 -349 -234 -489 -312 -209
-116 -370 -194 -563 -272 -30 -12 -68 -28 -85 -35 -74 -31 -444 -155 -510
-170 -11 -3 -99 -25 -195 -49 -97 -24 -189 -46 -205 -49 -17 -3 -41 -8 -55
-11 -14 -4 -43 -8 -65 -11 -22 -3 -47 -7 -55 -10 -19 -5 -63 -13 -120 -21 -25
-3 -53 -8 -64 -10 -10 -2 -44 -6 -75 -10 -31 -4 -63 -8 -71 -9 -8 -1 -46 -5
-85 -9 -38 -4 -81 -10 -95 -12 -14 -2 -65 -6 -115 -10 -49 -3 -110 -8 -135
-11 -25 -3 -673 -7 -1440 -9 -767 -2 -1404 -3 -1415 -4 -20 0 -20 -6 -20
-2340 0 -1555 -3 -2341 -10 -2343 -5 -2 -403 -3 -882 -3 -480 1 -873 -1 -873
-4 0 -3 459 -464 1019 -1024 l1019 -1019 869 0 c477 1 877 2 888 2 20 1 20 7
20 2439 l0 2437 1435 1 c1287 0 1574 4 1745 19 97 8 169 16 199 20 17 2 54 7
81 10 28 3 59 8 70 10 11 3 38 7 60 10 82 11 169 26 174 29 3 2 22 7 42 10
194 30 729 189 851 252 15 8 29 14 30 13 3 -1 23 7 128 52 69 29 304 146 390
194 97 54 122 70 275 171 364 241 680 530 953 873 391 490 662 1066 801 1696
17 77 33 154 36 170 3 17 7 39 9 50 2 11 7 40 10 65 3 25 8 54 10 65 2 11 7
52 11 90 4 39 9 78 11 88 12 65 19 252 19 502 -1 256 -5 367 -20 495 -2 19 -7
60 -10 90 -3 30 -8 66 -10 80 -3 14 -7 41 -10 60 -5 30 -29 162 -41 225 -2 11
-13 56 -24 100 -11 44 -23 90 -25 102 -18 79 -121 376 -167 483 -139 319 -233
484 -468 824 -37 54 -227 294 -250 316 -3 3 -36 41 -75 85 -38 44 -163 175
-276 290 -561 569 -761 769 -756 755z"/>
</g>
</svg>
