<svg width="354" height="244" viewBox="0 0 354 244" fill="none" xmlns="http://www.w3.org/2000/svg">
<path d="M40.6746 123.369V122.369H39.6746V123.369H40.6746ZM51.1826 123.369H52.1826V122.369H51.1826V123.369ZM51.1826 143.533L51.7849 144.331L52.1826 144.031V143.533H51.1826ZM41.8106 148.219L42.1038 149.175L42.1038 149.175L41.8106 148.219ZM17.1736 146.586L16.6983 147.466L16.7062 147.47L17.1736 146.586ZM7.44661 137.427L6.58548 137.935L6.5891 137.942L6.59281 137.948L7.44661 137.427ZM7.44661 110.944L6.59002 110.428L6.58819 110.431L7.44661 110.944ZM17.2446 101.785L17.7079 102.671L17.7157 102.667L17.2446 101.785ZM43.1596 100.649L43.5416 99.7248L43.5416 99.7248L43.1596 100.649ZM52.1056 107.039L52.7839 107.774L53.4951 107.117L52.8621 106.385L52.1056 107.039ZM44.7216 113.855L43.9964 114.544L44.6753 115.259L45.3999 114.59L44.7216 113.855ZM23.4216 110.234L23.8957 111.114L23.8957 111.114L23.4216 110.234ZM17.6706 115.843L18.5399 116.337L17.6706 115.843ZM17.6706 132.386L16.8013 132.88L16.8013 132.88L17.6706 132.386ZM23.3506 138.066L22.8563 138.935L22.8663 138.941L22.8765 138.946L23.3506 138.066ZM40.6746 137.924L41.1468 138.805L41.6746 138.523V137.924H40.6746ZM40.6746 124.369H51.1826V122.369H40.6746V124.369ZM50.1826 123.369V143.533H52.1826V123.369H50.1826ZM50.5804 142.735C47.9842 144.693 44.967 146.205 41.5174 147.263L42.1038 149.175C45.7542 148.056 48.9851 146.443 51.7849 144.331L50.5804 142.735ZM41.5174 147.263C38.0593 148.323 34.5844 148.852 31.0896 148.852V150.852C34.7895 150.852 38.4619 150.292 42.1038 149.175L41.5174 147.263ZM31.0896 148.852C26.0754 148.852 21.6 147.795 17.641 145.702L16.7062 147.47C20.9832 149.731 25.7852 150.852 31.0896 150.852V148.852ZM17.6489 145.706C13.6818 143.563 10.5721 140.632 8.30041 136.906L6.59281 137.948C9.05444 141.985 12.4294 145.16 16.6983 147.466L17.6489 145.706ZM8.30774 136.919C6.08648 133.156 4.96761 128.908 4.96761 124.15H2.96761C2.96761 129.237 4.16807 133.841 6.58548 137.935L8.30774 136.919ZM4.96761 124.15C4.96761 119.391 6.08649 115.17 8.30502 111.457L6.58819 110.431C4.16806 114.481 2.96761 119.063 2.96761 124.15H4.96761ZM8.30319 111.46C10.5728 107.693 13.7009 104.766 17.7079 102.671L16.7814 100.899C12.4577 103.159 9.0538 106.338 6.59003 110.428L8.30319 111.46ZM17.7157 102.667C21.7216 100.528 26.2431 99.448 31.3026 99.448V97.448C25.9488 97.448 21.0982 98.5931 16.7735 100.903L17.7157 102.667ZM31.3026 99.448C35.5436 99.448 39.3639 100.162 42.7776 101.573L43.5416 99.7248C39.8553 98.2012 35.7709 97.448 31.3026 97.448V99.448ZM42.7776 101.573C46.1894 102.983 49.0413 105.023 51.3491 107.693L52.8621 106.385C50.3419 103.469 47.2298 101.249 43.5416 99.7248L42.7776 101.573ZM51.4273 106.304L44.0433 113.12L45.3999 114.59L52.7839 107.774L51.4273 106.304ZM45.4468 113.166C41.7139 109.234 37.1706 107.246 31.8706 107.246V109.246C36.6053 109.246 40.6293 110.997 43.9964 114.544L45.4468 113.166ZM31.8706 107.246C28.5563 107.246 25.5732 107.94 22.9475 109.354L23.8957 111.114C26.1927 109.878 28.8422 109.246 31.8706 109.246V107.246ZM22.9475 109.354C20.322 110.767 18.2675 112.77 16.8013 115.349L18.5399 116.337C19.8191 114.088 21.5986 112.351 23.8957 111.114L22.9475 109.354ZM16.8013 115.349C15.3327 117.931 14.6116 120.875 14.6116 124.15H16.6116C16.6116 121.177 17.2632 118.583 18.5399 116.337L16.8013 115.349ZM14.6116 124.15C14.6116 127.381 15.334 130.3 16.8013 132.88L18.5399 131.892C17.2619 129.644 16.6116 127.073 16.6116 124.15H14.6116ZM16.8013 132.88C18.263 135.451 20.2858 137.474 22.8563 138.935L23.8449 137.197C21.5874 135.913 19.8236 134.149 18.5399 131.892L16.8013 132.88ZM22.8765 138.946C25.5 140.359 28.4589 141.054 31.7286 141.054V139.054C28.7503 139.054 26.1239 138.424 23.8247 137.186L22.8765 138.946ZM31.7286 141.054C35.1896 141.054 38.3365 140.311 41.1468 138.805L40.2024 137.043C37.7113 138.377 34.8943 139.054 31.7286 139.054V141.054ZM41.6746 137.924V123.369H39.6746V137.924H41.6746ZM93.533 149L92.7108 149.569L93.009 150H93.533V149ZM83.948 135.155L84.7702 134.586L84.472 134.155H83.948V135.155ZM73.369 135.155V134.155H72.369V135.155H73.369ZM73.369 149V150H74.369V149H73.369ZM61.867 149H60.867V150H61.867V149ZM61.867 99.3V98.3H60.867V99.3H61.867ZM94.811 101.501L94.3962 102.411L94.4012 102.413L94.811 101.501ZM102.266 126.919L101.434 126.364L101.432 126.368L102.266 126.919ZM94.74 133.025L94.3413 132.108L93.2207 132.595L93.9199 133.597L94.74 133.025ZM105.887 149V150H107.804L106.707 148.428L105.887 149ZM90.622 110.944L89.9779 111.709L89.9838 111.714L89.9899 111.719L90.622 110.944ZM73.369 108.672V107.672H72.369V108.672H73.369ZM73.369 125.996H72.369V126.996H73.369V125.996ZM90.622 123.724L91.2661 124.489L91.2661 124.489L90.622 123.724ZM94.3552 148.431L84.7702 134.586L83.1258 135.724L92.7108 149.569L94.3552 148.431ZM83.948 134.155H83.38V136.155H83.948V134.155ZM83.38 134.155H73.369V136.155H83.38V134.155ZM72.369 135.155V149H74.369V135.155H72.369ZM73.369 148H61.867V150H73.369V148ZM62.867 149V99.3H60.867V149H62.867ZM61.867 100.3H83.38V98.3H61.867V100.3ZM83.38 100.3C87.6729 100.3 91.3355 101.016 94.3962 102.411L95.2258 100.591C91.8492 99.0517 87.8911 98.3 83.38 98.3V100.3ZM94.4012 102.413C97.5124 103.811 99.8632 105.775 101.498 108.293L103.176 107.205C101.308 104.327 98.6417 102.126 95.2208 100.589L94.4012 102.413ZM101.498 108.293C103.129 110.806 103.964 113.806 103.964 117.334H105.964C105.964 113.478 105.047 110.088 103.176 107.205L101.498 108.293ZM103.964 117.334C103.964 120.857 103.108 123.853 101.434 126.364L103.098 127.474C105.021 124.589 105.964 121.195 105.964 117.334H103.964ZM101.432 126.368C99.7997 128.838 97.4519 130.755 94.3413 132.108L95.1387 133.942C98.5601 132.455 101.23 130.302 103.1 127.47L101.432 126.368ZM93.9199 133.597L105.067 149.572L106.707 148.428L95.5601 132.453L93.9199 133.597ZM105.887 148H93.533V150H105.887V148ZM94.32 117.334C94.32 114.308 93.3333 111.865 91.2541 110.169L89.9899 111.719C91.508 112.957 92.32 114.774 92.32 117.334H94.32ZM91.2661 110.179C89.2192 108.455 86.3245 107.672 82.741 107.672V109.672C86.0682 109.672 88.4275 110.403 89.9779 111.709L91.2661 110.179ZM82.741 107.672H73.369V109.672H82.741V107.672ZM72.369 108.672V125.996H74.369V108.672H72.369ZM73.369 126.996H82.741V124.996H73.369V126.996ZM82.741 126.996C86.3245 126.996 89.2192 126.213 91.2661 124.489L89.9779 122.959C88.4275 124.265 86.0682 124.996 82.741 124.996V126.996ZM91.2661 124.489C93.3293 122.752 94.32 120.319 94.32 117.334H92.32C92.32 119.839 91.512 121.667 89.9779 122.959L91.2661 124.489ZM146.808 138.35L147.732 137.968L147.477 137.35H146.808V138.35ZM123.733 138.35V137.35H123.064L122.809 137.968L123.733 138.35ZM119.331 149V150H120L120.255 149.382L119.331 149ZM107.545 149L106.632 148.593L106.004 150H107.545V149ZM129.697 99.3V98.3H129.048L128.784 98.8929L129.697 99.3ZM141.057 99.3L141.97 98.8918L141.705 98.3H141.057V99.3ZM163.28 149V150H164.823L164.193 148.592L163.28 149ZM151.21 149L150.286 149.382L150.541 150H151.21V149ZM143.187 129.617V130.617H144.684L144.111 129.234L143.187 129.617ZM135.306 110.589L136.23 110.206L135.306 107.976L134.382 110.206L135.306 110.589ZM127.425 129.617L126.501 129.234L125.928 130.617H127.425V129.617ZM146.808 137.35H123.733V139.35H146.808V137.35ZM122.809 137.968L118.407 148.618L120.255 149.382L124.657 138.732L122.809 137.968ZM119.331 148H107.545V150H119.331V148ZM108.458 149.407L130.61 99.7071L128.784 98.8929L106.632 148.593L108.458 149.407ZM129.697 100.3H141.057V98.3H129.697V100.3ZM140.144 99.7082L162.367 149.408L164.193 148.592L141.97 98.8918L140.144 99.7082ZM163.28 148H151.21V150H163.28V148ZM152.134 148.618L147.732 137.968L145.884 138.732L150.286 149.382L152.134 148.618ZM144.111 129.234L136.23 110.206L134.382 110.972L142.263 130L144.111 129.234ZM134.382 110.206L126.501 129.234L128.349 130L136.23 110.972L134.382 110.206ZM127.425 130.617H143.187V128.617H127.425V130.617ZM201.38 101.501L200.966 102.411L200.971 102.413L201.38 101.501ZM208.906 126.919L209.745 127.463L209.749 127.457L208.906 126.919ZM201.38 133.167L201.784 134.082L201.79 134.079L201.38 133.167ZM179.938 135.297V134.297H178.938V135.297H179.938ZM179.938 149V150H180.938V149H179.938ZM168.436 149H167.436V150H168.436V149ZM168.436 99.3V98.3H167.436V99.3H168.436ZM197.191 123.724L197.823 124.499L197.83 124.494L197.835 124.489L197.191 123.724ZM197.191 110.944L196.547 111.709L196.553 111.714L196.559 111.719L197.191 110.944ZM179.938 108.672V107.672H178.938V108.672H179.938ZM179.938 125.925H178.938V126.925H179.938V125.925ZM189.949 100.3C194.242 100.3 197.905 101.016 200.966 102.411L201.795 100.591C198.418 99.0517 194.46 98.3 189.949 98.3V100.3ZM200.971 102.413C204.082 103.811 206.433 105.775 208.068 108.293L209.745 107.205C207.878 104.327 205.211 102.126 201.79 100.589L200.971 102.413ZM208.068 108.293C209.699 110.806 210.533 113.806 210.533 117.334H212.533C212.533 113.478 211.617 110.088 209.745 107.205L208.068 108.293ZM210.533 117.334C210.533 120.812 209.7 123.815 208.063 126.381L209.749 127.457C211.615 124.532 212.533 121.146 212.533 117.334H210.533ZM208.068 126.375C206.433 128.893 204.082 130.857 200.971 132.255L201.79 134.079C205.211 132.542 207.878 130.341 209.745 127.463L208.068 126.375ZM200.977 132.252C197.913 133.604 194.246 134.297 189.949 134.297V136.297C194.456 136.297 198.41 135.57 201.784 134.082L200.977 132.252ZM189.949 134.297H179.938V136.297H189.949V134.297ZM178.938 135.297V149H180.938V135.297H178.938ZM179.938 148H168.436V150H179.938V148ZM169.436 149V99.3H167.436V149H169.436ZM168.436 100.3H189.949V98.3H168.436V100.3ZM189.31 126.925C192.888 126.925 195.777 126.168 197.823 124.499L196.559 122.949C195.008 124.215 192.644 124.925 189.31 124.925V126.925ZM197.835 124.489C199.899 122.752 200.889 120.319 200.889 117.334H198.889C198.889 119.839 198.081 121.667 196.547 122.959L197.835 124.489ZM200.889 117.334C200.889 114.308 199.903 111.865 197.823 110.169L196.559 111.719C198.077 112.957 198.889 114.774 198.889 117.334H200.889ZM197.835 110.179C195.789 108.455 192.894 107.672 189.31 107.672V109.672C192.638 109.672 194.997 110.403 196.547 111.709L197.835 110.179ZM189.31 107.672H179.938V109.672H189.31V107.672ZM178.938 108.672V125.925H180.938V108.672H178.938ZM179.938 126.925H189.31V124.925H179.938V126.925ZM265.327 99.3H266.327V98.3H265.327V99.3ZM265.327 149V150H266.327V149H265.327ZM253.825 149H252.825V150H253.825V149ZM253.825 128.623H254.825V127.623H253.825V128.623ZM231.247 128.623V127.623H230.247V128.623H231.247ZM231.247 149V150H232.247V149H231.247ZM219.745 149H218.745V150H219.745V149ZM219.745 99.3V98.3H218.745V99.3H219.745ZM231.247 99.3H232.247V98.3H231.247V99.3ZM231.247 118.896H230.247V119.896H231.247V118.896ZM253.825 118.896V119.896H254.825V118.896H253.825ZM253.825 99.3V98.3H252.825V99.3H253.825ZM264.327 99.3V149H266.327V99.3H264.327ZM265.327 148H253.825V150H265.327V148ZM254.825 149V128.623H252.825V149H254.825ZM253.825 127.623H231.247V129.623H253.825V127.623ZM230.247 128.623V149H232.247V128.623H230.247ZM231.247 148H219.745V150H231.247V148ZM220.745 149V99.3H218.745V149H220.745ZM219.745 100.3H231.247V98.3H219.745V100.3ZM230.247 99.3V118.896H232.247V99.3H230.247ZM231.247 119.896H253.825V117.896H231.247V119.896ZM254.825 118.896V99.3H252.825V118.896H254.825ZM253.825 100.3H265.327V98.3H253.825V100.3ZM277.086 99.3V98.3H276.086V99.3H277.086ZM288.588 99.3H289.588V98.3H288.588V99.3ZM288.588 149V150H289.588V149H288.588ZM277.086 149H276.086V150H277.086V149ZM277.086 100.3H288.588V98.3H277.086V100.3ZM287.588 99.3V149H289.588V99.3H287.588ZM288.588 148H277.086V150H288.588V148ZM278.086 149V99.3H276.086V149H278.086ZM310.394 146.586L309.914 147.464L309.926 147.47L310.394 146.586ZM300.738 137.427L299.876 137.935L299.88 137.942L299.884 137.948L300.738 137.427ZM300.738 110.944L299.881 110.428L299.879 110.431L300.738 110.944ZM310.394 101.785L310.865 102.667L310.869 102.665L310.394 101.785ZM335.883 100.72L335.481 101.636L335.486 101.638L335.883 100.72ZM344.687 107.252L345.365 107.987L346.063 107.342L345.455 106.612L344.687 107.252ZM337.303 114.068L336.547 114.723L337.222 115.503L337.981 114.803L337.303 114.068ZM316.571 110.305L317.052 111.182L317.058 111.178L317.065 111.174L316.571 110.305ZM310.891 115.914L310.021 115.42L310.018 115.426L310.014 115.433L310.891 115.914ZM310.891 132.386L310.014 132.867L310.018 132.874L310.021 132.88L310.891 132.386ZM316.571 138.066L316.076 138.935L316.083 138.939L316.089 138.943L316.571 138.066ZM337.303 134.161L337.981 133.426L337.218 132.722L336.543 133.511L337.303 134.161ZM344.687 140.977L345.46 141.611L346.058 140.882L345.365 140.242L344.687 140.977ZM335.883 147.58L335.486 146.662L335.883 147.58ZM324.168 148.852C319.251 148.852 314.823 147.797 310.861 145.702L309.926 147.47C314.201 149.73 318.955 150.852 324.168 150.852V148.852ZM310.873 145.708C306.953 143.566 303.865 140.635 301.591 136.906L299.884 137.948C302.344 141.982 305.693 145.157 309.914 147.464L310.873 145.708ZM301.599 136.919C299.377 133.156 298.259 128.908 298.259 124.15H296.259C296.259 129.237 297.459 133.841 299.876 137.935L301.599 136.919ZM298.259 124.15C298.259 119.391 299.378 115.17 301.596 111.457L299.879 110.431C297.459 114.481 296.259 119.063 296.259 124.15H298.259ZM301.594 111.46C303.867 107.687 306.952 104.76 310.865 102.667L309.922 100.903C305.693 103.165 302.341 106.344 299.881 110.428L301.594 111.46ZM310.869 102.665C314.828 100.526 319.277 99.448 324.239 99.448V97.448C318.976 97.448 314.196 98.5945 309.918 100.905L310.869 102.665ZM324.239 99.448C328.427 99.448 332.169 100.184 335.481 101.636L336.284 99.8041C332.685 98.2266 328.665 97.448 324.239 97.448V99.448ZM335.486 101.638C338.849 103.092 341.655 105.177 343.918 107.892L345.455 106.612C342.985 103.647 339.921 101.377 336.28 99.8021L335.486 101.638ZM344.008 106.517L336.624 113.333L337.981 114.803L345.365 107.987L344.008 106.517ZM338.059 113.413C334.515 109.321 330.078 107.246 324.807 107.246V109.246C329.476 109.246 333.369 111.052 336.547 114.723L338.059 113.413ZM324.807 107.246C321.576 107.246 318.657 107.968 316.076 109.436L317.065 111.174C319.312 109.896 321.884 109.246 324.807 109.246V107.246ZM316.089 109.428C313.512 110.844 311.485 112.846 310.021 115.42L311.76 116.408C313.042 114.154 314.802 112.417 317.052 111.182L316.089 109.428ZM310.014 115.433C308.599 118.011 307.903 120.925 307.903 124.15H309.903C309.903 121.221 310.532 118.645 311.767 116.395L310.014 115.433ZM307.903 124.15C307.903 127.375 308.599 130.289 310.014 132.867L311.767 131.905C310.532 129.655 309.903 127.078 309.903 124.15H307.903ZM310.021 132.88C311.483 135.451 313.506 137.474 316.076 138.935L317.065 137.197C314.807 135.913 313.044 134.149 311.76 131.892L310.021 132.88ZM316.089 138.943C318.668 140.358 321.582 141.054 324.807 141.054V139.054C321.878 139.054 319.302 138.425 317.052 137.189L316.089 138.943ZM324.807 141.054C330.082 141.054 334.521 138.952 338.063 134.811L336.543 133.511C333.363 137.228 329.471 139.054 324.807 139.054V141.054ZM336.624 134.896L344.008 141.712L345.365 140.242L337.981 133.426L336.624 134.896ZM343.913 140.343C341.65 143.104 338.845 145.209 335.486 146.662L336.28 148.498C339.925 146.921 342.99 144.624 345.46 141.611L343.913 140.343ZM335.486 146.662C332.124 148.116 328.356 148.852 324.168 148.852V150.852C328.594 150.852 332.636 150.073 336.28 148.498L335.486 146.662Z" fill="#FF9F10"/>
<path d="M26.7315 214.71C25.0748 214.71 23.856 214.26 23.075 213.361C22.294 212.462 21.9035 211.302 21.9035 209.882C21.9035 209.693 21.9035 209.42 21.9035 209.065C21.9272 208.71 21.9745 208.344 22.0455 207.965L23.075 202.249L25.3825 196.392L25.489 192.096L33.512 162.134H27.6545V160.75H39.5825L26.3765 210.308C26.2818 210.663 26.2345 211.042 26.2345 211.444C26.2345 211.823 26.341 212.166 26.554 212.473C26.767 212.781 27.1457 212.935 27.69 212.935C28.7313 212.935 29.7017 212.592 30.601 211.905C31.5003 211.195 32.3878 210.083 33.2635 208.568C34.1392 207.054 35.0503 205.089 35.997 202.675L37.346 203.137C36.3283 205.859 35.3107 208.071 34.293 209.775C33.2753 211.479 32.1512 212.734 30.9205 213.538C29.7135 214.32 28.3172 214.71 26.7315 214.71ZM11.3245 214.71C8.24783 214.71 5.97583 213.681 4.5085 211.621C3.04117 209.539 2.3075 206.722 2.3075 203.172C2.3075 200.451 2.81633 197.765 3.834 195.114C4.87533 192.44 6.248 190.014 7.952 187.836C9.656 185.659 11.5138 183.92 13.5255 182.618C15.5608 181.293 17.5843 180.63 19.596 180.63C21.3237 180.63 22.6727 181.091 23.643 182.014C24.637 182.937 25.3352 184.18 25.7375 185.742C26.1635 187.304 26.3765 189.02 26.3765 190.889C26.3765 192.522 26.199 194.25 25.844 196.073C25.5127 197.871 25.0275 199.658 24.3885 201.433C23.7495 203.208 22.9803 204.9 22.081 206.509C21.1817 208.095 20.164 209.503 19.028 210.734C17.9157 211.965 16.7087 212.935 15.407 213.645C14.129 214.355 12.7682 214.71 11.3245 214.71ZM12.354 212.651C13.6793 212.651 14.9692 212.213 16.2235 211.337C17.4778 210.438 18.6493 209.243 19.738 207.752C20.8267 206.261 21.7852 204.581 22.6135 202.711C23.4418 200.818 24.0808 198.865 24.5305 196.853C25.0038 194.842 25.2405 192.889 25.2405 190.996C25.2405 189.268 25.0748 187.777 24.7435 186.523C24.4122 185.245 23.8915 184.251 23.1815 183.541C22.4715 182.831 21.5367 182.476 20.377 182.476C19.1463 182.476 17.9275 182.985 16.7205 184.002C15.5135 185.02 14.3657 186.369 13.277 188.049C12.1883 189.73 11.2298 191.599 10.4015 193.658C9.57317 195.717 8.92233 197.8 8.449 199.906C7.97567 202.013 7.739 203.989 7.739 205.835C7.739 208.083 8.1295 209.787 8.9105 210.947C9.6915 212.083 10.8393 212.651 12.354 212.651ZM51.6048 214.71C49.3328 214.71 47.4158 214.237 45.8538 213.29C44.2918 212.32 43.1085 210.982 42.3038 209.278C41.4991 207.574 41.0968 205.598 41.0968 203.35C41.0968 200.628 41.5938 197.93 42.5878 195.256C43.5818 192.558 44.9781 190.108 46.7768 187.907C48.5755 185.706 50.6818 183.943 53.0958 182.618C55.5335 181.293 58.1723 180.63 61.0123 180.63C63.5683 180.63 65.5445 181.269 66.9408 182.547C68.3608 183.801 69.0708 185.363 69.0708 187.233C69.0708 189.174 68.4081 190.913 67.0828 192.451C65.7575 193.966 63.9943 195.268 61.7933 196.356C59.5923 197.421 57.1546 198.273 54.4803 198.912C51.806 199.528 49.1198 199.918 46.4218 200.084V198.877C48.4571 198.711 50.3505 198.439 52.1018 198.06C53.8768 197.682 55.4743 197.161 56.8943 196.498C58.338 195.836 59.5686 195.019 60.5863 194.049C61.6276 193.079 62.4205 191.954 62.9648 190.676C63.5328 189.375 63.8168 187.896 63.8168 186.239C63.8168 185.127 63.5565 184.156 63.0358 183.328C62.5388 182.476 61.6986 182.05 60.5153 182.05C59.1663 182.05 57.8765 182.429 56.6458 183.186C55.4388 183.943 54.3028 184.985 53.2378 186.31C52.1965 187.612 51.2498 189.091 50.3978 190.747C49.5458 192.404 48.8121 194.155 48.1968 196.001C47.6051 197.824 47.1436 199.646 46.8123 201.468C46.5046 203.267 46.3508 204.959 46.3508 206.545C46.3508 208.912 46.8951 210.568 47.9838 211.515C49.0961 212.438 50.4806 212.899 52.1373 212.899C54.007 212.899 55.7346 212.533 57.3203 211.799C58.906 211.042 60.3378 210 61.6158 208.675C62.8938 207.35 64.018 205.823 64.9883 204.095L66.2308 204.841C65.3078 206.64 64.1363 208.284 62.7163 209.775C61.32 211.266 59.687 212.462 57.8173 213.361C55.9713 214.26 53.9005 214.71 51.6048 214.71ZM84.7557 214.71C82.7677 214.71 80.8744 214.402 79.0757 213.787C77.3007 213.148 75.8452 212.225 74.7092 211.018C73.5732 209.787 73.0052 208.296 73.0052 206.545C73.0052 205.504 73.3129 204.604 73.9282 203.847C74.5672 203.066 75.4429 202.675 76.5552 202.675C77.5255 202.675 78.3184 203.019 78.9337 203.705C79.549 204.368 79.8567 205.22 79.8567 206.261C79.8567 207.35 79.5135 208.178 78.8272 208.746C78.1409 209.314 77.348 209.598 76.4487 209.598C75.8334 209.598 75.2654 209.491 74.7447 209.278C74.2477 209.065 73.8454 208.734 73.5377 208.284C73.23 207.835 73.0762 207.255 73.0762 206.545H74.9932C74.9932 208.012 75.4192 209.255 76.2712 210.272C77.1469 211.266 78.3184 212.024 79.7857 212.544C81.2767 213.041 82.9215 213.29 84.7202 213.29C86.0455 213.29 87.359 213.077 88.6607 212.651C89.986 212.201 91.0865 211.527 91.9622 210.627C92.8379 209.728 93.2757 208.58 93.2757 207.184C93.2757 205.882 92.8852 204.746 92.1042 203.776C91.3469 202.806 90.3647 201.93 89.1577 201.149C87.9507 200.344 86.6609 199.575 85.2882 198.841C83.9392 198.108 82.6612 197.327 81.4542 196.498C80.2472 195.646 79.2532 194.676 78.4722 193.587C77.7149 192.499 77.3362 191.209 77.3362 189.718C77.3362 187.967 77.845 186.416 78.8627 185.067C79.8804 183.695 81.2885 182.63 83.0872 181.872C84.8859 181.091 86.9449 180.701 89.2642 180.701C91.3469 180.701 93.11 181.02 94.5537 181.659C96.021 182.298 97.1334 183.103 97.8907 184.073C98.6717 185.044 99.0622 186.026 99.0622 187.02C99.0622 188.298 98.7309 189.233 98.0682 189.824C97.4292 190.392 96.6955 190.676 95.8672 190.676C94.9915 190.676 94.2105 190.404 93.5242 189.86C92.8615 189.292 92.5302 188.428 92.5302 187.268C92.5302 186.393 92.8379 185.624 93.4532 184.961C94.0922 184.275 94.8969 183.931 95.8672 183.931C96.6245 183.931 97.3345 184.227 97.9972 184.819C98.6599 185.387 98.9912 186.121 98.9912 187.02H97.3227C97.3227 186.168 96.9914 185.375 96.3287 184.641C95.6897 183.884 94.7667 183.281 93.5597 182.831C92.3527 182.358 90.9209 182.121 89.2642 182.121C88.0572 182.121 86.8739 182.31 85.7142 182.689C84.5545 183.044 83.596 183.612 82.8387 184.393C82.0814 185.15 81.7027 186.132 81.7027 187.339C81.7027 188.523 82.0695 189.54 82.8032 190.392C83.5605 191.244 84.5309 192.025 85.7142 192.735C86.8975 193.422 88.1519 194.12 89.4772 194.83C90.8262 195.54 92.0924 196.333 93.2757 197.208C94.459 198.084 95.4175 199.114 96.1512 200.297C96.9085 201.48 97.2872 202.924 97.2872 204.628C97.2872 206.734 96.6719 208.545 95.4412 210.059C94.2105 211.55 92.6367 212.698 90.7197 213.503C88.8027 214.308 86.8147 214.71 84.7557 214.71ZM108.974 214.71C107.128 214.71 105.768 214.308 104.892 213.503C104.04 212.675 103.614 211.586 103.614 210.237C103.614 209.882 103.638 209.515 103.685 209.136C103.756 208.734 103.839 208.344 103.933 207.965L111.175 182.724H105.992V181.34H117.104L108.939 210.308C108.892 210.497 108.856 210.698 108.832 210.911C108.809 211.101 108.797 211.278 108.797 211.444C108.797 211.846 108.892 212.201 109.081 212.509C109.294 212.793 109.673 212.935 110.217 212.935C111.282 212.935 112.264 212.592 113.163 211.905C114.063 211.195 114.938 210.083 115.79 208.568C116.666 207.054 117.589 205.089 118.559 202.675L119.908 203.137C118.891 205.859 117.861 208.071 116.82 209.775C115.802 211.479 114.666 212.734 113.412 213.538C112.181 214.32 110.702 214.71 108.974 214.71ZM117.565 168.95C116.784 168.95 116.074 168.761 115.435 168.382C114.796 167.98 114.288 167.459 113.909 166.82C113.53 166.158 113.341 165.436 113.341 164.655C113.341 163.874 113.53 163.164 113.909 162.525C114.288 161.862 114.796 161.342 115.435 160.963C116.074 160.584 116.784 160.395 117.565 160.395C118.346 160.395 119.056 160.584 119.695 160.963C120.358 161.342 120.879 161.862 121.257 162.525C121.66 163.164 121.861 163.874 121.861 164.655C121.861 165.436 121.66 166.158 121.257 166.82C120.879 167.459 120.358 167.98 119.695 168.382C119.056 168.761 118.346 168.95 117.565 168.95ZM132.304 232.46C128.801 232.46 126.032 232.046 123.997 231.218C121.985 230.389 120.565 229.301 119.737 227.952C118.885 226.603 118.459 225.159 118.459 223.621C118.459 222.177 118.885 220.84 119.737 219.609C120.589 218.378 121.654 217.302 122.932 216.379C124.21 215.456 125.5 214.734 126.802 214.213C128.103 213.692 129.204 213.432 130.103 213.432H132.162C130.269 213.763 128.671 214.414 127.37 215.385C126.068 216.379 125.074 217.574 124.388 218.97C123.725 220.39 123.394 221.917 123.394 223.55C123.394 225.774 124.08 227.561 125.453 228.91C126.825 230.259 128.896 230.934 131.665 230.934C134.434 230.934 137.014 230.614 139.404 229.975C141.818 229.36 143.924 228.484 145.723 227.348C147.522 226.212 148.918 224.887 149.912 223.372C150.93 221.857 151.439 220.213 151.439 218.438C151.439 217.041 150.977 216.059 150.054 215.491C149.155 214.923 147.971 214.639 146.504 214.639C146.054 214.639 145.344 214.639 144.374 214.639C143.427 214.639 142.351 214.639 141.144 214.639C139.96 214.639 138.789 214.639 137.629 214.639C136.469 214.639 135.44 214.639 134.541 214.639C133.665 214.639 133.073 214.639 132.766 214.639C130.636 214.639 128.813 214.355 127.299 213.787C125.784 213.219 124.612 212.426 123.784 211.408C122.979 210.391 122.577 209.207 122.577 207.858C122.577 206.722 122.885 205.669 123.5 204.699C124.115 203.705 124.967 202.841 126.056 202.107C127.168 201.35 128.47 200.77 129.961 200.368C131.452 199.942 133.085 199.729 134.86 199.729L134.789 200.652C132.564 200.652 130.849 201.173 129.642 202.214C128.435 203.255 127.831 204.332 127.831 205.444C127.831 206.557 128.198 207.421 128.932 208.036C129.689 208.628 130.612 209.042 131.701 209.278C132.813 209.491 133.89 209.598 134.931 209.598C135.759 209.598 136.777 209.598 137.984 209.598C139.191 209.574 140.363 209.562 141.499 209.562C142.658 209.539 143.569 209.527 144.232 209.527C146.906 209.527 149.143 210.048 150.942 211.089C152.74 212.13 153.64 214.095 153.64 216.982C153.64 219.562 153.001 221.822 151.723 223.763C150.468 225.703 148.788 227.313 146.682 228.591C144.599 229.892 142.303 230.863 139.795 231.502C137.286 232.141 134.789 232.46 132.304 232.46ZM140.043 202.64C138.126 202.64 136.41 202.249 134.896 201.468C133.381 200.687 132.186 199.575 131.31 198.131C130.434 196.688 129.997 194.96 129.997 192.948C129.997 190.676 130.624 188.617 131.878 186.771C133.156 184.902 134.825 183.423 136.884 182.334C138.966 181.222 141.203 180.665 143.593 180.665C145.51 180.665 147.226 181.08 148.741 181.908C150.255 182.736 151.45 183.908 152.326 185.422C153.202 186.913 153.64 188.665 153.64 190.676C153.64 192.925 153.001 194.96 151.723 196.782C150.468 198.581 148.812 200.013 146.753 201.078C144.694 202.119 142.457 202.64 140.043 202.64ZM139.333 201.255C140.327 201.255 141.286 200.983 142.209 200.439C143.132 199.871 143.995 199.114 144.8 198.167C145.605 197.197 146.303 196.12 146.895 194.936C147.51 193.73 147.983 192.487 148.315 191.209C148.67 189.931 148.847 188.7 148.847 187.517C148.847 185.955 148.48 184.653 147.747 183.612C147.013 182.571 145.865 182.05 144.303 182.05C143.309 182.05 142.351 182.334 141.428 182.902C140.505 183.446 139.641 184.204 138.836 185.174C138.031 186.121 137.321 187.186 136.706 188.369C136.114 189.552 135.641 190.783 135.286 192.061C134.955 193.339 134.789 194.57 134.789 195.753C134.789 197.315 135.156 198.628 135.89 199.693C136.623 200.735 137.771 201.255 139.333 201.255ZM158.361 180.985C159.568 180.985 160.55 181.352 161.308 182.085C162.089 182.795 162.479 183.742 162.479 184.925C162.479 185.896 162.183 186.736 161.592 187.446C161 188.132 160.207 188.475 159.213 188.475C158.337 188.475 157.556 188.203 156.87 187.659C156.184 187.091 155.841 186.31 155.841 185.316C155.841 184.63 156.03 184.038 156.409 183.541C156.811 183.02 157.32 182.665 157.935 182.476C158.432 182.594 158.894 182.795 159.32 183.079C159.769 183.363 160.16 183.754 160.491 184.251C160.278 183.636 159.911 183.174 159.391 182.866C158.87 182.559 158.314 182.405 157.722 182.405C156.752 182.405 155.829 182.713 154.953 183.328C154.077 183.92 153.249 184.748 152.468 185.813C151.687 186.854 150.965 188.049 150.303 189.398L149.309 188.83C150.563 186.203 151.936 184.239 153.427 182.937C154.941 181.636 156.586 180.985 158.361 180.985ZM190.193 214.71C188.347 214.71 186.963 214.355 186.04 213.645C185.117 212.935 184.655 211.823 184.655 210.308C184.655 209.811 184.703 209.326 184.797 208.852C184.892 208.355 184.999 207.953 185.117 207.645L190.016 192.132C190.584 190.31 190.963 188.688 191.152 187.268C191.365 185.848 191.258 184.736 190.832 183.931C190.43 183.127 189.614 182.724 188.383 182.724C187.271 182.724 185.993 183.34 184.549 184.57C183.105 185.801 181.65 187.458 180.182 189.54C178.715 191.623 177.354 193.966 176.1 196.569C174.869 199.173 173.887 201.835 173.153 204.557H172.159C172.68 202.593 173.378 200.522 174.254 198.344C175.153 196.143 176.195 194.002 177.378 191.919C178.561 189.836 179.839 187.943 181.212 186.239C182.608 184.535 184.052 183.186 185.543 182.192C187.034 181.174 188.525 180.665 190.016 180.665C192.075 180.665 193.637 181.162 194.702 182.156C195.791 183.127 196.43 184.428 196.619 186.061C196.832 187.671 196.654 189.422 196.086 191.315L190.335 210.272C190.264 210.485 190.205 210.71 190.158 210.947C190.134 211.16 190.122 211.361 190.122 211.55C190.122 211.905 190.217 212.225 190.406 212.509C190.619 212.769 190.974 212.899 191.471 212.899C193.128 212.899 194.584 212.107 195.838 210.521C197.116 208.912 198.477 206.296 199.92 202.675L201.234 203.137C200.216 205.859 199.187 208.071 198.145 209.775C197.128 211.479 195.98 212.734 194.702 213.538C193.448 214.32 191.945 214.71 190.193 214.71ZM164.846 214L173.047 182.724H168.325V181.34H179.224L170.704 214H164.846ZM216.555 214.71C214.283 214.71 212.366 214.237 210.804 213.29C209.242 212.32 208.059 210.982 207.254 209.278C206.449 207.574 206.047 205.598 206.047 203.35C206.047 200.628 206.544 197.93 207.538 195.256C208.532 192.558 209.928 190.108 211.727 187.907C213.526 185.706 215.632 183.943 218.046 182.618C220.484 181.293 223.122 180.63 225.962 180.63C228.518 180.63 230.495 181.269 231.891 182.547C233.311 183.801 234.021 185.363 234.021 187.233C234.021 189.174 233.358 190.913 232.033 192.451C230.708 193.966 228.944 195.268 226.743 196.356C224.542 197.421 222.105 198.273 219.43 198.912C216.756 199.528 214.07 199.918 211.372 200.084V198.877C213.407 198.711 215.301 198.439 217.052 198.06C218.827 197.682 220.424 197.161 221.844 196.498C223.288 195.836 224.519 195.019 225.536 194.049C226.578 193.079 227.371 191.954 227.915 190.676C228.483 189.375 228.767 187.896 228.767 186.239C228.767 185.127 228.507 184.156 227.986 183.328C227.489 182.476 226.649 182.05 225.465 182.05C224.116 182.05 222.827 182.429 221.596 183.186C220.389 183.943 219.253 184.985 218.188 186.31C217.147 187.612 216.2 189.091 215.348 190.747C214.496 192.404 213.762 194.155 213.147 196.001C212.555 197.824 212.094 199.646 211.762 201.468C211.455 203.267 211.301 204.959 211.301 206.545C211.301 208.912 211.845 210.568 212.934 211.515C214.046 212.438 215.431 212.899 217.087 212.899C218.957 212.899 220.685 212.533 222.27 211.799C223.856 211.042 225.288 210 226.566 208.675C227.844 207.35 228.968 205.823 229.938 204.095L231.181 204.841C230.258 206.64 229.086 208.284 227.666 209.775C226.27 211.266 224.637 212.462 222.767 213.361C220.921 214.26 218.851 214.71 216.555 214.71ZM238.31 214L246.085 182.724H240.653V181.34H251.729L243.919 214H238.31ZM245.659 203.172C246.085 201.255 246.629 199.256 247.292 197.173C247.955 195.09 248.724 193.079 249.599 191.138C250.475 189.174 251.445 187.41 252.51 185.848C253.599 184.263 254.759 183.008 255.989 182.085C257.244 181.139 258.557 180.665 259.93 180.665C261.374 180.665 262.498 181.068 263.302 181.872C264.131 182.653 264.545 183.624 264.545 184.783C264.545 185.872 264.237 186.795 263.622 187.552C263.007 188.31 262.155 188.688 261.066 188.688C260.048 188.688 259.196 188.381 258.51 187.765C257.847 187.15 257.516 186.345 257.516 185.351C257.516 184.405 257.835 183.6 258.474 182.937C259.113 182.275 259.989 181.943 261.101 181.943C262.095 181.943 262.9 182.204 263.515 182.724C264.154 183.221 264.474 183.908 264.474 184.783H263.089C263.089 184.026 262.817 183.375 262.273 182.831C261.752 182.287 260.995 182.014 260.001 182.014C258.699 182.014 257.469 182.476 256.309 183.399C255.149 184.298 254.061 185.517 253.043 187.055C252.049 188.57 251.126 190.262 250.274 192.132C249.446 193.978 248.712 195.859 248.073 197.776C247.434 199.693 246.901 201.492 246.475 203.172H245.659Z" fill="white"/>
<path d="M214.632 30.3H221.732L211.792 80H204.692L214.632 30.3ZM231.002 44.074V42.9025C232.446 42.9025 233.89 42.5238 235.333 41.7665C236.777 41.0092 238.079 40.0033 239.238 38.749C240.398 37.471 241.297 36.0628 241.936 34.5245C242.575 32.9862 242.8 31.4242 242.611 29.8385H243.711C243.711 30.5958 243.475 31.2703 243.001 31.862C242.528 32.4537 241.913 32.9152 241.155 33.2465C240.398 33.5542 239.605 33.708 238.777 33.708C237.262 33.708 236.138 33.3175 235.404 32.5365C234.694 31.7555 234.339 30.8207 234.339 29.732C234.339 28.951 234.541 28.2292 234.943 27.5665C235.369 26.8802 235.937 26.3358 236.647 25.9335C237.381 25.5312 238.197 25.33 239.096 25.33C240.019 25.33 240.836 25.5312 241.546 25.9335C242.28 26.3122 242.848 26.9038 243.25 27.7085C243.652 28.5132 243.853 29.5427 243.853 30.797C243.853 32.3827 243.487 33.9683 242.753 35.554C242.019 37.116 241.037 38.5478 239.806 39.8495C238.599 41.1275 237.227 42.157 235.688 42.938C234.174 43.6953 232.612 44.074 231.002 44.074ZM283.105 80.71C281.236 80.71 279.899 80.2958 279.094 79.4675C278.289 78.6155 277.887 77.515 277.887 76.166C277.887 75.6453 277.934 75.1602 278.029 74.7105C278.147 74.2372 278.254 73.823 278.348 73.468L282.821 58.132C283.744 54.9843 284.194 52.5467 284.17 50.819C284.17 49.0913 283.46 48.2275 282.04 48.2275C280.597 48.2275 279.129 48.8783 277.638 50.18C276.147 51.458 274.704 53.1738 273.307 55.3275C271.935 57.4812 270.692 59.8833 269.58 62.534C268.491 65.161 267.604 67.8353 266.917 70.557H266.065C266.752 67.859 267.651 65.1137 268.763 62.321C269.876 59.5047 271.166 56.9132 272.633 54.5465C274.1 52.1798 275.71 50.2747 277.461 48.831C279.236 47.3873 281.106 46.6655 283.07 46.6655C285.2 46.6655 286.762 47.1625 287.756 48.1565C288.75 49.1268 289.294 50.4167 289.389 52.026C289.484 53.6353 289.259 55.3985 288.714 57.3155L283.141 76.5565C283.07 76.7695 283.011 76.9943 282.963 77.231C282.94 77.4677 282.928 77.6925 282.928 77.9055C282.928 78.2842 283.046 78.6037 283.283 78.864C283.543 79.1007 283.898 79.219 284.348 79.219C285.437 79.219 286.454 78.8758 287.401 78.1895C288.371 77.4795 289.318 76.3553 290.241 74.817C291.164 73.2787 292.099 71.2552 293.045 68.7465L294.146 69.137C293.128 71.8587 292.099 74.0715 291.057 75.7755C290.04 77.4795 288.892 78.7338 287.614 79.5385C286.36 80.3195 284.857 80.71 283.105 80.71ZM240.15 80L247.676 48.476H242.99V47.34H253.64L245.83 80H240.15ZM258.965 80L264.29 58.132C265.071 54.937 265.486 52.4875 265.533 50.7835C265.604 49.0795 264.929 48.2275 263.509 48.2275C262.066 48.2275 260.575 48.8783 259.036 50.18C257.522 51.458 256.054 53.1738 254.634 55.3275C253.214 57.4812 251.936 59.8833 250.8 62.534C249.664 65.161 248.753 67.8353 248.067 70.557H247.215C247.901 67.859 248.824 65.1137 249.984 62.321C251.144 59.5047 252.481 56.9132 253.995 54.5465C255.534 52.1798 257.214 50.2747 259.036 48.831C260.859 47.3873 262.776 46.6655 264.787 46.6655C266.728 46.6655 268.16 47.1625 269.083 48.1565C270.03 49.1268 270.562 50.4167 270.68 52.026C270.822 53.6353 270.657 55.3985 270.183 57.3155L264.61 80H258.965ZM325.479 80.71C322.379 80.71 320.107 79.6805 318.663 77.6215C317.219 75.5625 316.498 72.7462 316.498 69.1725C316.498 66.4508 317.006 63.7647 318.024 61.114C319.042 58.4397 320.403 56.0138 322.107 53.8365C323.811 51.6592 325.668 49.9197 327.68 48.618C329.715 47.2927 331.751 46.63 333.786 46.63C335.537 46.63 336.886 47.1152 337.833 48.0855C338.78 49.0322 339.431 50.2865 339.786 51.8485C340.164 53.4105 340.354 55.1027 340.354 56.925C340.354 58.5343 340.188 60.2383 339.857 62.037C339.525 63.8357 339.04 65.6225 338.401 67.3975C337.762 69.1725 337.005 70.8647 336.129 72.474C335.253 74.0597 334.259 75.4797 333.147 76.734C332.035 77.9647 330.84 78.935 329.562 79.645C328.284 80.355 326.923 80.71 325.479 80.71ZM326.58 78.935C327.929 78.935 329.23 78.4853 330.485 77.586C331.739 76.6867 332.91 75.4678 333.999 73.9295C335.088 72.3912 336.034 70.6753 336.839 68.782C337.667 66.865 338.306 64.9007 338.756 62.889C339.206 60.8537 339.431 58.8893 339.431 56.996C339.431 55.2447 339.265 53.7182 338.934 52.4165C338.626 51.0912 338.117 50.0498 337.407 49.2925C336.697 48.5352 335.739 48.1565 334.532 48.1565C333.301 48.1565 332.082 48.6772 330.875 49.7185C329.668 50.7598 328.52 52.1325 327.432 53.8365C326.367 55.5405 325.42 57.4338 324.592 59.5165C323.763 61.5992 323.101 63.7055 322.604 65.8355C322.13 67.9655 321.894 69.9535 321.894 71.7995C321.894 74.1898 322.308 75.9767 323.136 77.16C323.988 78.3433 325.136 78.935 326.58 78.935ZM340.922 80.71C339.265 80.71 338.046 80.2603 337.265 79.361C336.484 78.4617 336.094 77.302 336.094 75.882C336.094 75.4797 336.105 75.1247 336.129 74.817C336.153 74.4857 336.188 74.2017 336.236 73.965L337.23 68.498L338.969 63.0665L339.999 56.7475L342.271 47.34H348.27L340.46 76.6275C340.365 77.0062 340.318 77.3848 340.318 77.7635C340.318 78.1895 340.425 78.5445 340.638 78.8285C340.874 79.1125 341.253 79.2545 341.774 79.2545C342.886 79.2545 343.915 78.8995 344.862 78.1895C345.809 77.4558 346.732 76.3198 347.631 74.7815C348.554 73.2432 349.489 71.2315 350.436 68.7465L351.536 69.137C350.518 71.8587 349.489 74.0715 348.448 75.7755C347.43 77.4795 346.318 78.7338 345.111 79.5385C343.904 80.3195 342.507 80.71 340.922 80.71Z" fill="white"/>
</svg>
